<?xml version="1.0" encoding="UTF-8" standalone="no"?>
<!-- Generator: Adobe Illustrator 18.0.0, SVG Export Plug-In . SVG Version: 6.00 Build 0)  -->

<svg
   version="1.1"
   id="BORDADO_copia"
   x="0px"
   y="0px"
   viewBox="0 278 399.99945 111.142"
   enable-background="new 0 278 612 243"
   xml:space="preserve"
   sodipodi:docname="emprocap.svg"
   width="399.99945"
   height="111.142"
   inkscape:version="1.1.2 (0a00cf5339, 2022-02-04)"
   xmlns:inkscape="http://www.inkscape.org/namespaces/inkscape"
   xmlns:sodipodi="http://sodipodi.sourceforge.net/DTD/sodipodi-0.dtd"
   xmlns="http://www.w3.org/2000/svg"
   xmlns:svg="http://www.w3.org/2000/svg"><defs
   id="defs2140">
	
		<linearGradient
   id="SVGID_1_"
   gradientUnits="userSpaceOnUse"
   x1="555.3855"
   y1="486.375"
   x2="675.58752"
   y2="404.74561"
   gradientTransform="matrix(0.7727,0,0,-0.7727,0,771.5454)">
		<stop
   offset="5.618000e-003"
   style="stop-color:#E2C03B"
   id="stop2035" />
		<stop
   offset="0.5955"
   style="stop-color:#B28F32"
   id="stop2037" />
		<stop
   offset="0.8517"
   style="stop-color:#DECE85"
   id="stop2039" />
		<stop
   offset="0.8708"
   style="stop-color:#E2D38C"
   id="stop2041" />
		<stop
   offset="1"
   style="stop-color:#F2EFCE"
   id="stop2043" />
	</linearGradient>
	
	
		<radialGradient
   id="SVGID_2_"
   cx="169.547"
   cy="-866.42407"
   r="201.798"
   gradientTransform="matrix(0.9301,0,0,-0.8338,226.6296,-426.8432)"
   gradientUnits="userSpaceOnUse">
		<stop
   offset="0"
   style="stop-color:#F2EFCE"
   id="stop2048" />
		<stop
   offset="0.1034"
   style="stop-color:#EEE8BE"
   id="stop2050" />
		<stop
   offset="0.308"
   style="stop-color:#E5D998"
   id="stop2052" />
		<stop
   offset="0.3708"
   style="stop-color:#E2D38C"
   id="stop2054" />
		<stop
   offset="0.6854"
   style="stop-color:#D7B53B"
   id="stop2056" />
		<stop
   offset="1"
   style="stop-color:#B28F32"
   id="stop2058" />
	</radialGradient>
	
	
</defs><sodipodi:namedview
   id="namedview2138"
   pagecolor="#ffffff"
   bordercolor="#666666"
   borderopacity="1.0"
   inkscape:pageshadow="2"
   inkscape:pageopacity="0.0"
   inkscape:pagecheckerboard="0"
   showgrid="false"
   inkscape:zoom="0.77989719"
   inkscape:cx="130.78647"
   inkscape:cy="76.933218"
   inkscape:window-width="1920"
   inkscape:window-height="1011"
   inkscape:window-x="0"
   inkscape:window-y="0"
   inkscape:window-maximized="1"
   inkscape:current-layer="BORDADO_copia" />

<g
   id="g2790"
   transform="matrix(0.71780628,0,0,0.71780628,-15.253383,46.030597)"><path
     fill="url(#SVGID_1_)"
     d="m 531.9,382.6 c -1,-2.6 -2.5,-4.9 -4.6,-6.9 -2.1,-1.9 -4.6,-3.5 -7.8,-4.6 -3.2,-1.2 -6.9,-1.7 -11.3,-1.7 h -24 v 64.2 l -29,-64.2 h -6.8 l -32.3,67.1 c -1,0.5 -2,1 -3,1.4 -2.2,0.9 -4.4,1.7 -6.6,2.3 -2.3,0.6 -4.6,1.1 -7,1.4 -2.4,0.3 -4.6,0.5 -7,0.5 -4.5,0 -8.3,-0.6 -11.6,-1.7 -3.2,-1.2 -5.9,-2.9 -8,-5.3 -2.2,-2.4 -3.7,-5.4 -4.7,-9.1 -1,-3.7 -1.5,-8.1 -1.5,-13.1 0,-4.9 0.5,-9.3 1.5,-13.1 1,-3.8 2.6,-7 4.8,-9.5 2.2,-2.6 4.9,-4.5 8.3,-5.8 3.3,-1.3 7.3,-1.9 12,-1.9 2.6,0 5.3,0.2 8.2,0.8 2.9,0.5 5.8,1.3 8.9,2.2 v 16.7 l 6.6,-0.3 1.2,-20.8 c -3.9,-1.6 -7.9,-2.8 -11.9,-3.6 -4,-0.8 -8.3,-1.2 -12.8,-1.2 -5.7,0 -10.7,0.9 -15.1,2.7 -4.3,1.8 -8,4.3 -11,7.6 -2.9,3.2 -5.2,7.1 -6.6,11.6 -1.5,4.5 -2.2,9.4 -2.2,14.7 0,5.9 0.6,11 1.9,15.5 1.3,4.4 3.3,8 6.1,11 2.8,2.9 6.3,5.1 10.5,6.6 4.2,1.5 9.3,2.2 15.3,2.2 6.2,0 11.7,-0.8 16.8,-2.2 5,-1.5 9.5,-3.6 13.6,-6.5 v 0 0 0 0 l 10.8,-23.1 H 468 l 10.7,23.1 h 8.4 v 0 h 5.1 v -23.5 c 0.7,0.2 1.5,0.2 2.6,0.4 0.9,0.1 1.9,0.2 3,0.2 1,0.1 2.2,0.1 3.2,0.2 1.1,0.1 2.2,0.1 3.2,0.1 4.6,0 8.8,-0.7 12.4,-1.9 3.6,-1.3 6.7,-3.2 9.2,-5.4 2.5,-2.3 4.4,-5 5.7,-8.2 1.3,-3.2 1.9,-6.6 1.9,-10.3 -0.1,-3.1 -0.6,-5.9 -1.5,-8.6 z m -95.8,28.6 13.5,-29.8 c 0.5,-1.2 0.9,-2.2 1.2,-3.1 0.2,-0.9 0.4,-1.9 0.4,-2.8 0,0.5 0,0.9 0,1.3 0,0.5 0.1,0.9 0.2,1.3 0.1,0.5 0.2,0.9 0.4,1.5 0.2,0.5 0.4,1.1 0.7,1.7 l 13.2,29.8 z m 88.1,-12.1 c -0.8,2.4 -2,4.5 -3.7,6.3 -1.7,1.8 -3.9,3.2 -6.5,4.3 -2.6,1.1 -5.9,1.6 -9.7,1.6 -1.1,0 -2.2,0 -3.3,-0.1 -1.2,-0.1 -2.2,-0.1 -3.3,-0.2 -1.1,-0.1 -2.2,-0.2 -3.1,-0.3 -1,-0.1 -1.8,-0.2 -2.6,-0.3 V 375 h 14.6 c 3.4,0 6.3,0.5 8.7,1.4 2.4,0.9 4.3,2.2 5.8,3.7 1.5,1.5 2.6,3.3 3.2,5.3 0.7,2 1,4.1 1,6.2 0.1,2.7 -0.3,5.2 -1.1,7.5 z"
     id="path2046"
     style="fill:url(#SVGID_1_)" /><path
     fill="url(#SVGID_2_)"
     d="m 392,355.1 c 44.5,-36.7 113.8,-34.2 154.9,5.7 30.1,29.4 36.5,70.7 20.2,105.1 19.6,-35.6 14.1,-79.8 -17.8,-110.8 -41.3,-40.2 -111,-42.8 -155.9,-5.8 -19.1,15.7 -30.5,36.1 -34.2,57.3 4.4,-19.1 15.5,-37.2 32.8,-51.5 z"
     id="path2061"
     style="fill:url(#SVGID_2_)" /><g
     id="g2133">
		<g
   id="g2075">
			<g
   id="g2073">
				<path
   fill="#17295b"
   d="m 72.6,377.6 -0.8,5.7 H 31.2 v 25.2 h 36.4 v 5.6 H 31.2 v 28 h 40.6 l 0.8,5.7 H 23.3 v -70.2 z"
   id="path2063" />
				<path
   fill="#17295b"
   d="m 148.1,377.6 h 10 l 5.6,70.2 h -7.2 L 151.2,384 c 0,1 -0.2,2.2 -0.8,3.9 -0.5,1.6 -1.2,3.4 -2.2,5.3 l -25.7,53.6 -5.7,0.3 -26.6,-52.5 c -0.7,-1.4 -1.2,-2.8 -1.5,-4.1 -0.3,-1.4 -0.5,-2.6 -0.6,-3.8 l -4.3,61.1 h -7 l 5.4,-70.2 h 8.3 l 29.4,60 z"
   id="path2065" />
				<path
   fill="#17295b"
   d="m 173.1,377.6 h 24 c 4.3,0 8.1,0.5 11.3,1.7 3.2,1.1 5.7,2.6 7.8,4.6 2.1,1.9 3.6,4.3 4.6,6.9 1,2.6 1.5,5.4 1.5,8.4 0,3.7 -0.7,7.1 -1.9,10.3 -1.3,3.2 -3.2,5.9 -5.6,8.2 -2.5,2.3 -5.6,4.1 -9.2,5.4 -3.6,1.3 -7.8,2 -12.4,2 -1.1,0 -2.2,0 -3.2,-0.1 -1.1,0 -2.2,-0.1 -3.2,-0.2 -1,-0.1 -2.1,-0.2 -3,-0.2 -0.9,-0.1 -1.8,-0.2 -2.6,-0.4 v 23.5 h -7.8 v -70.1 z m 20,41.7 c 3.8,0 7,-0.5 9.7,-1.6 2.6,-1.1 4.9,-2.5 6.5,-4.3 1.7,-1.8 2.9,-3.9 3.7,-6.3 0.8,-2.4 1.2,-4.9 1.2,-7.4 0,-2.2 -0.3,-4.2 -1,-6.2 -0.7,-2 -1.8,-3.8 -3.2,-5.3 -1.5,-1.5 -3.4,-2.8 -5.8,-3.7 -2.4,-0.9 -5.3,-1.4 -8.7,-1.4 h -14.6 v 35.4 c 0.7,0.1 1.5,0.2 2.6,0.3 0.9,0.1 2,0.2 3.1,0.3 1.1,0.1 2.2,0.2 3.3,0.2 1,0 2.2,0 3.2,0 z"
   id="path2067" />
				<path
   fill="#17295b"
   d="m 225.5,447.8 v -70.2 h 24.9 c 4.1,0 7.7,0.4 10.7,1.2 3,0.9 5.6,2 7.6,3.6 2,1.5 3.5,3.3 4.5,5.5 1,2.1 1.5,4.5 1.5,7 0,1.9 -0.3,3.9 -0.8,6 -0.5,2 -1.3,4 -2.5,6 -1.2,2 -2.6,4.1 -4.3,6.2 -1.7,2.1 -3.8,4.2 -6.2,6.3 l 23,28.4 h -9.5 L 253,421.1 h -19.7 v 26.7 z m 30.9,-32.3 c 1.6,-1.4 3,-2.9 4.3,-4.5 1.3,-1.6 2.4,-3.2 3.3,-4.9 0.9,-1.7 1.6,-3.4 2.1,-5.1 0.5,-1.7 0.7,-3.3 0.7,-4.9 0,-2.1 -0.3,-3.9 -1.1,-5.6 -0.7,-1.6 -1.9,-3 -3.3,-4.1 -1.5,-1.2 -3.5,-1.9 -5.9,-2.5 -2.4,-0.6 -5.3,-0.9 -8.7,-0.9 h -14.6 v 32.5 z"
   id="path2069" />
				<path
   fill="#17295b"
   d="m 352,412.3 c 0,3.2 -0.3,6.4 -1,9.5 -0.7,3.1 -1.7,6 -3.1,8.7 -1.4,2.7 -3.2,5.2 -5.2,7.3 -2.1,2.2 -4.5,4.2 -7.3,5.8 -2.8,1.6 -5.9,2.9 -9.4,3.7 -3.5,0.9 -7.3,1.3 -11.5,1.3 -5.8,0 -10.9,-0.7 -15.4,-2 -4.4,-1.3 -8.2,-3.4 -11.2,-6.2 -3,-2.8 -5.3,-6.4 -6.9,-10.8 -1.5,-4.4 -2.3,-9.7 -2.3,-15.8 0,-5.6 0.9,-10.7 2.6,-15.3 1.8,-4.6 4.3,-8.5 7.6,-11.7 3.2,-3.2 7.2,-5.7 11.8,-7.4 4.6,-1.8 9.7,-2.6 15.5,-2.6 3.6,0 7,0.2 10.1,0.8 3.2,0.5 6.1,1.3 8.7,2.5 2.6,1.2 5,2.6 7.2,4.4 2.1,1.9 3.9,4.1 5.4,6.7 1.5,2.6 2.6,5.7 3.4,9.2 0.6,3.4 1,7.4 1,11.9 z m -8.1,-0.5 c 0,-2.9 -0.2,-5.6 -0.6,-8.1 -0.4,-2.5 -1,-4.9 -1.9,-7.1 -0.9,-2.2 -2.1,-4.1 -3.6,-5.9 -1.5,-1.7 -3.2,-3.2 -5.3,-4.4 -2.1,-1.2 -4.6,-2.2 -7.4,-2.8 -2.8,-0.6 -6,-1 -9.7,-1 -4.6,0 -8.7,0.8 -12.3,2.2 -3.6,1.5 -6.6,3.6 -9,6.3 -2.5,2.7 -4.3,5.9 -5.6,9.7 -1.2,3.7 -1.9,7.9 -1.9,12.4 0,4.7 0.5,9 1.5,12.7 1,3.7 2.6,6.8 4.9,9.4 2.3,2.5 5.3,4.5 9,5.8 3.7,1.3 8.2,2 13.5,2 4.6,0 8.7,-0.8 12.2,-2.3 3.6,-1.5 6.6,-3.7 8.9,-6.4 2.4,-2.7 4.3,-6 5.5,-9.8 1.2,-3.9 1.8,-8.1 1.8,-12.7 z"
   id="path2071" />
			</g>
		</g>
		<g
   id="g2131">
			<g
   id="g2123">
				<g
   id="g2121">
					<path
   fill="#17295b"
   stroke="#1c3064"
   stroke-width="0.5"
   stroke-miterlimit="10"
   d="m 33.5,465.8 -1.3,0.1 v -3.4 c -0.6,-0.2 -1.2,-0.4 -1.9,-0.5 -0.6,-0.1 -1.2,-0.2 -1.7,-0.2 -0.9,0 -1.8,0.2 -2.5,0.4 -0.7,0.2 -1.2,0.7 -1.7,1.2 -0.5,0.5 -0.8,1.2 -1,1.9 -0.2,0.8 -0.3,1.7 -0.3,2.7 0,1.1 0.1,1.9 0.3,2.7 0.2,0.8 0.5,1.4 1,1.9 0.5,0.5 1,0.9 1.7,1.1 0.7,0.2 1.5,0.4 2.4,0.4 0.5,0 0.9,0 1.5,-0.1 0.5,-0.1 0.9,-0.2 1.5,-0.3 0.5,-0.2 0.9,-0.3 1.4,-0.5 0.5,-0.2 0.8,-0.4 1.2,-0.6 l 0.7,1 c -0.8,0.6 -1.8,1.1 -2.8,1.4 -1,0.3 -2.2,0.5 -3.5,0.5 -1.2,0 -2.2,-0.2 -3.2,-0.5 -0.8,-0.3 -1.6,-0.8 -2.2,-1.3 -0.5,-0.6 -1,-1.4 -1.2,-2.2 -0.2,-0.9 -0.4,-1.9 -0.4,-3.2 0,-1.1 0.2,-2.1 0.5,-3 0.3,-0.9 0.8,-1.7 1.4,-2.4 0.6,-0.7 1.4,-1.2 2.2,-1.5 0.9,-0.4 1.9,-0.5 3.1,-0.5 0.9,0 1.8,0.1 2.6,0.2 0.8,0.2 1.6,0.4 2.5,0.7 z"
   id="path2077" />
					<path
   fill="#17295b"
   stroke="#1c3064"
   stroke-width="0.5"
   stroke-miterlimit="10"
   d="m 56.3,460.8 -0.2,1.2 h -8.3 v 5.2 h 7.5 v 1.2 h -7.5 v 5.8 h 8.3 l 0.2,1.2 H 46.2 v -14.5 h 10.1 z"
   id="path2079" />
					<path
   fill="#17295b"
   stroke="#1c3064"
   stroke-width="0.5"
   stroke-miterlimit="10"
   d="M 70.2,463.2 C 70,463 70,462.8 70,462.7 v 12.5 H 68.6 V 460.7 H 70 l 9.7,11.3 c 0.2,0.3 0.4,0.5 0.5,0.7 0.2,0.2 0.2,0.4 0.2,0.5 V 460.7 H 82 v 14.5 h -1.5 l -9.8,-11.3 c -0.1,-0.2 -0.4,-0.4 -0.5,-0.7 z"
   id="path2081" />
					<path
   fill="#17295b"
   stroke="#1c3064"
   stroke-width="0.5"
   stroke-miterlimit="10"
   d="m 98.7,461.9 h -6.1 l 0.1,-1.2 h 13.6 l -0.2,1.2 h -5.8 v 13.3 h -1.6 z"
   id="path2083" />
					<path
   fill="#17295b"
   stroke="#1c3064"
   stroke-width="0.5"
   stroke-miterlimit="10"
   d="m 117,475.2 v -14.5 h 5.1 c 0.8,0 1.5,0.1 2.2,0.2 0.6,0.2 1.2,0.4 1.5,0.7 0.4,0.3 0.7,0.7 0.9,1.2 0.2,0.5 0.3,0.9 0.3,1.5 0,0.4 -0.1,0.9 -0.2,1.2 -0.1,0.4 -0.3,0.9 -0.5,1.2 -0.2,0.4 -0.5,0.9 -0.8,1.2 -0.4,0.4 -0.8,0.9 -1.2,1.3 l 4.7,5.9 h -1.9 l -4.4,-5.5 h -4.1 v 5.5 H 117 Z m 6.3,-6.6 c 0.3,-0.3 0.6,-0.6 0.8,-0.9 0.2,-0.3 0.5,-0.7 0.7,-1 0.2,-0.4 0.3,-0.7 0.5,-1.1 0.1,-0.3 0.2,-0.7 0.2,-1 0,-0.5 -0.1,-0.8 -0.2,-1.2 -0.2,-0.3 -0.4,-0.6 -0.7,-0.9 -0.3,-0.2 -0.7,-0.4 -1.2,-0.5 -0.5,-0.2 -1.1,-0.2 -1.8,-0.2 h -3 v 6.6 z"
   id="path2085" />
					<path
   fill="#17295b"
   stroke="#1c3064"
   stroke-width="0.5"
   stroke-miterlimit="10"
   d="m 154.2,467.9 c 0,0.7 -0.1,1.3 -0.2,1.9 -0.1,0.6 -0.4,1.2 -0.6,1.8 -0.3,0.5 -0.6,1.1 -1.1,1.5 -0.4,0.5 -0.9,0.9 -1.5,1.2 -0.5,0.3 -1.2,0.6 -1.9,0.8 -0.7,0.2 -1.5,0.2 -2.4,0.2 -1.2,0 -2.2,-0.2 -3.2,-0.4 -0.9,-0.2 -1.7,-0.7 -2.3,-1.3 -0.6,-0.6 -1.1,-1.3 -1.4,-2.2 -0.3,-0.9 -0.5,-2 -0.5,-3.2 0,-1.2 0.2,-2.2 0.5,-3.2 0.4,-0.9 0.8,-1.8 1.5,-2.4 0.7,-0.7 1.5,-1.2 2.4,-1.5 0.9,-0.4 2,-0.5 3.2,-0.5 0.8,0 1.5,0.1 2.1,0.2 0.6,0.1 1.2,0.3 1.8,0.5 0.5,0.2 1,0.5 1.5,0.9 0.5,0.4 0.8,0.9 1.1,1.4 0.3,0.5 0.5,1.2 0.7,1.9 0.2,0.7 0.3,1.4 0.3,2.4 z m -1.7,-0.1 c 0,-0.6 -0.1,-1.2 -0.2,-1.7 -0.1,-0.5 -0.2,-1 -0.4,-1.5 -0.2,-0.5 -0.4,-0.9 -0.7,-1.2 -0.3,-0.4 -0.7,-0.7 -1.1,-0.9 -0.5,-0.2 -0.9,-0.5 -1.5,-0.6 -0.5,-0.2 -1.2,-0.2 -2,-0.2 -0.9,0 -1.8,0.2 -2.5,0.5 -0.8,0.3 -1.3,0.8 -1.9,1.3 -0.5,0.5 -0.9,1.2 -1.2,2 -0.2,0.8 -0.4,1.6 -0.4,2.5 0,1 0.1,1.9 0.3,2.6 0.2,0.8 0.5,1.4 1,1.9 0.5,0.5 1.1,0.9 1.9,1.2 0.8,0.3 1.7,0.4 2.8,0.4 0.9,0 1.8,-0.2 2.5,-0.5 0.7,-0.3 1.3,-0.8 1.9,-1.3 0.5,-0.5 0.8,-1.2 1.2,-2 0.2,-0.7 0.3,-1.6 0.3,-2.5 z"
   id="path2087" />
					<path
   fill="#17295b"
   stroke="#1c3064"
   stroke-width="0.5"
   stroke-miterlimit="10"
   d="m 188,461.1 c 0.9,0.2 1.7,0.6 2.4,1.2 0.6,0.5 1.2,1.2 1.5,2.2 0.4,0.9 0.5,2 0.5,3.3 0,0.7 -0.1,1.3 -0.2,1.9 -0.2,0.6 -0.3,1.2 -0.6,1.8 -0.3,0.5 -0.6,1.1 -1.1,1.5 -0.5,0.5 -0.9,0.9 -1.5,1.2 -0.6,0.3 -1.3,0.6 -2.1,0.8 -0.8,0.2 -1.7,0.3 -2.6,0.3 h -4.7 v -14.4 h 5.3 c 1.1,-0.1 2.2,-0.1 3.1,0.2 z m -0.8,12.5 c 0.8,-0.3 1.5,-0.8 2,-1.3 0.5,-0.5 0.9,-1.2 1.2,-2 0.3,-0.8 0.4,-1.6 0.4,-2.5 0,-0.9 -0.2,-1.7 -0.3,-2.4 -0.2,-0.7 -0.6,-1.3 -1.1,-1.8 -0.5,-0.5 -1.2,-0.9 -1.9,-1.2 -0.8,-0.2 -1.7,-0.4 -2.9,-0.4 h -3.4 v 12.1 h 3.1 c 1.1,0 2.1,-0.2 2.9,-0.5 z"
   id="path2089" />
					<path
   fill="#17295b"
   stroke="#1c3064"
   stroke-width="0.5"
   stroke-miterlimit="10"
   d="m 214.5,460.8 -0.2,1.2 H 206 v 5.2 h 7.5 v 1.2 H 206 v 5.8 h 8.3 l 0.2,1.2 h -10.1 v -14.5 h 10.1 z"
   id="path2091" />
					<path
   fill="#17295b"
   stroke="#1c3064"
   stroke-width="0.5"
   stroke-miterlimit="10"
   d="m 250.8,465.8 -1.3,0.1 v -3.4 c -0.6,-0.2 -1.2,-0.4 -1.9,-0.5 -0.6,-0.1 -1.2,-0.2 -1.7,-0.2 -0.9,0 -1.8,0.2 -2.5,0.4 -0.7,0.2 -1.2,0.7 -1.7,1.2 -0.5,0.5 -0.8,1.2 -1,1.9 -0.2,0.8 -0.3,1.7 -0.3,2.7 0,1.1 0.1,1.9 0.3,2.7 0.2,0.8 0.5,1.4 1,1.9 0.5,0.5 1,0.9 1.6,1.1 0.7,0.2 1.5,0.4 2.4,0.4 0.5,0 0.9,0 1.5,-0.1 0.5,-0.1 0.9,-0.2 1.5,-0.3 0.5,-0.2 0.9,-0.3 1.4,-0.5 0.5,-0.2 0.8,-0.4 1.2,-0.6 l 0.7,1 c -0.8,0.6 -1.8,1.1 -2.8,1.4 -1,0.3 -2.2,0.5 -3.5,0.5 -1.2,0 -2.2,-0.2 -3.2,-0.5 -0.8,-0.3 -1.6,-0.8 -2.2,-1.3 -0.5,-0.6 -1,-1.4 -1.2,-2.2 -0.2,-0.9 -0.4,-1.9 -0.4,-3.2 0,-1.1 0.2,-2.1 0.5,-3 0.3,-0.9 0.8,-1.7 1.4,-2.4 0.6,-0.7 1.4,-1.2 2.2,-1.5 0.9,-0.4 1.9,-0.5 3.1,-0.5 0.9,0 1.8,0.1 2.6,0.2 0.8,0.2 1.6,0.4 2.5,0.7 z"
   id="path2093" />
					<path
   fill="#17295b"
   stroke="#1c3064"
   stroke-width="0.5"
   stroke-miterlimit="10"
   d="m 261.2,475.2 7,-14.5 h 1.4 l 6.5,14.5 h -1.7 l -2.2,-4.8 h -7 l -2.2,4.8 z m 4.4,-5.9 h 6.1 l -2.7,-6.1 c -0.1,-0.2 -0.1,-0.2 -0.2,-0.4 -0.1,-0.2 -0.1,-0.2 -0.1,-0.3 0,-0.1 0,-0.2 -0.1,-0.3 0,-0.1 0,-0.2 0,-0.2 0,0.2 0,0.4 -0.1,0.5 -0.1,0.2 -0.2,0.4 -0.2,0.6 z"
   id="path2095" />
					<path
   fill="#17295b"
   stroke="#1c3064"
   stroke-width="0.5"
   stroke-miterlimit="10"
   d="m 287.2,460.8 h 4.9 c 0.8,0 1.7,0.2 2.3,0.4 0.6,0.2 1.2,0.5 1.6,0.9 0.4,0.4 0.7,0.9 0.9,1.4 0.2,0.5 0.3,1.1 0.3,1.7 0,0.8 -0.2,1.5 -0.4,2.1 -0.2,0.6 -0.6,1.2 -1.2,1.7 -0.5,0.5 -1.2,0.9 -1.9,1.1 -0.8,0.2 -1.6,0.4 -2.6,0.4 -0.2,0 -0.5,0 -0.7,0 -0.2,0 -0.5,0 -0.7,0 -0.2,0 -0.4,0 -0.6,-0.1 -0.2,0 -0.4,-0.1 -0.5,-0.1 v 4.9 H 287 Z m 4.1,8.5 c 0.8,0 1.5,-0.1 2,-0.3 0.5,-0.2 1,-0.5 1.3,-0.9 0.3,-0.4 0.6,-0.8 0.8,-1.3 0.2,-0.5 0.2,-1 0.2,-1.5 0,-0.5 -0.1,-0.9 -0.2,-1.3 -0.2,-0.4 -0.4,-0.8 -0.7,-1.1 -0.3,-0.3 -0.7,-0.5 -1.2,-0.8 -0.5,-0.2 -1.1,-0.3 -1.8,-0.3 h -3 v 7.3 c 0.2,0 0.3,0 0.5,0.1 0.2,0 0.4,0.1 0.6,0.1 0.2,0 0.5,0 0.7,0 0.4,0 0.7,0 0.8,0 z"
   id="path2097" />
					<path
   fill="#17295b"
   stroke="#1c3064"
   stroke-width="0.5"
   stroke-miterlimit="10"
   d="m 305.4,475.2 7,-14.5 h 1.4 l 6.5,14.5 h -1.7 l -2.2,-4.8 h -7.1 l -2.2,4.8 z m 4.3,-5.9 h 6.1 l -2.7,-6.1 c -0.1,-0.2 -0.1,-0.2 -0.2,-0.4 0,-0.1 -0.1,-0.2 -0.1,-0.3 0,-0.1 0,-0.2 0,-0.3 0,-0.1 0,-0.2 0,-0.2 0,0.2 0,0.4 -0.1,0.5 -0.1,0.2 -0.2,0.4 -0.2,0.6 z"
   id="path2099" />
					<path
   fill="#17295b"
   stroke="#1c3064"
   stroke-width="0.5"
   stroke-miterlimit="10"
   d="m 342,465.8 -1.3,0.1 v -3.4 c -0.6,-0.2 -1.2,-0.4 -1.9,-0.5 -0.6,-0.1 -1.2,-0.2 -1.7,-0.2 -0.9,0 -1.8,0.2 -2.5,0.4 -0.7,0.2 -1.2,0.7 -1.7,1.2 -0.5,0.5 -0.8,1.2 -1,1.9 -0.2,0.8 -0.3,1.7 -0.3,2.7 0,1.1 0.1,1.9 0.3,2.7 0.2,0.8 0.5,1.4 0.9,1.9 0.5,0.5 1,0.9 1.7,1.1 0.7,0.2 1.5,0.4 2.4,0.4 0.5,0 0.9,0 1.5,-0.1 0.5,-0.1 1,-0.2 1.5,-0.3 0.5,-0.1 0.9,-0.3 1.4,-0.5 0.5,-0.2 0.8,-0.4 1.2,-0.6 l 0.7,1 c -0.9,0.6 -1.8,1.1 -2.8,1.4 -1,0.3 -2.2,0.5 -3.5,0.5 -1.2,0 -2.2,-0.2 -3.2,-0.5 -0.8,-0.3 -1.6,-0.8 -2.2,-1.3 -0.5,-0.6 -1,-1.4 -1.2,-2.2 -0.2,-0.9 -0.4,-1.9 -0.4,-3.2 0,-1.1 0.2,-2.1 0.5,-3 0.3,-0.9 0.8,-1.7 1.4,-2.4 0.6,-0.7 1.4,-1.2 2.2,-1.5 0.9,-0.4 1.9,-0.5 3.1,-0.5 0.9,0 1.8,0.1 2.6,0.2 0.8,0.1 1.6,0.4 2.5,0.7 z"
   id="path2101" />
					<path
   fill="#17295b"
   stroke="#1c3064"
   stroke-width="0.5"
   stroke-miterlimit="10"
   d="m 361.3,461.8 -3,0.1 v 12.2 l 3,0.1 v 1.1 h -7.7 v -1 l 3,-0.2 v -12.2 l -3,-0.1 v -1.1 h 7.7 z"
   id="path2103" />
					<path
   fill="#17295b"
   stroke="#1c3064"
   stroke-width="0.5"
   stroke-miterlimit="10"
   d="m 377,461.9 h -6.1 l 0.1,-1.2 h 13.5 l -0.2,1.2 h -5.8 v 13.3 h -1.6 z"
   id="path2105" />
					<path
   fill="#17295b"
   stroke="#1c3064"
   stroke-width="0.5"
   stroke-miterlimit="10"
   d="m 391.8,475.2 7,-14.5 h 1.4 l 6.5,14.5 H 405 l -2.2,-4.8 h -7 l -2.2,4.8 z m 4.4,-5.9 h 6.1 l -2.7,-6.1 c -0.1,-0.2 -0.1,-0.2 -0.2,-0.4 0,-0.1 -0.1,-0.2 -0.1,-0.3 0,-0.1 0,-0.2 0,-0.3 0,-0.1 0,-0.2 0,-0.2 0,0.2 0,0.4 -0.1,0.5 -0.1,0.2 -0.2,0.4 -0.2,0.6 z"
   id="path2107" />
					<path
   fill="#17295b"
   stroke="#1c3064"
   stroke-width="0.5"
   stroke-miterlimit="10"
   d="m 428.4,465.8 -1.3,0.1 v -3.4 c -0.6,-0.2 -1.2,-0.4 -1.9,-0.5 -0.6,-0.1 -1.2,-0.2 -1.7,-0.2 -0.9,0 -1.8,0.2 -2.5,0.4 -0.7,0.2 -1.2,0.7 -1.7,1.2 -0.5,0.5 -0.8,1.2 -1,1.9 -0.2,0.8 -0.3,1.7 -0.3,2.7 0,1.1 0.1,1.9 0.3,2.7 0.2,0.8 0.5,1.4 1,1.9 0.5,0.5 1,0.9 1.6,1.1 0.7,0.2 1.5,0.4 2.4,0.4 0.5,0 0.9,0 1.5,-0.1 0.5,-0.1 0.9,-0.2 1.5,-0.3 0.5,-0.2 0.9,-0.3 1.4,-0.5 0.5,-0.2 0.9,-0.4 1.2,-0.6 l 0.7,1 c -0.8,0.6 -1.8,1.1 -2.8,1.4 -1.1,0.3 -2.2,0.5 -3.5,0.5 -1.2,0 -2.3,-0.2 -3.2,-0.5 -0.9,-0.3 -1.6,-0.8 -2.2,-1.3 -0.5,-0.6 -1,-1.4 -1.2,-2.2 -0.3,-0.9 -0.4,-1.9 -0.4,-3.2 0,-1.1 0.2,-2.1 0.5,-3 0.3,-0.9 0.8,-1.7 1.4,-2.4 0.6,-0.7 1.4,-1.2 2.2,-1.5 0.9,-0.4 1.9,-0.5 3.1,-0.5 0.9,0 1.8,0.1 2.6,0.2 0.9,0.2 1.6,0.4 2.5,0.7 z"
   id="path2109" />
					<path
   fill="#17295b"
   stroke="#1c3064"
   stroke-width="0.5"
   stroke-miterlimit="10"
   d="m 447.7,461.8 -3,0.1 v 12.2 l 3,0.1 v 1.1 H 440 v -1 l 3,-0.2 v -12.2 l -3,-0.1 v -1.1 h 7.7 z"
   id="path2111" />
					<path
   fill="#17295b"
   stroke="#1c3064"
   stroke-width="0.5"
   stroke-miterlimit="10"
   d="m 473.8,467.9 c 0,0.7 -0.1,1.3 -0.2,1.9 -0.2,0.6 -0.4,1.2 -0.6,1.8 -0.3,0.5 -0.6,1.1 -1.1,1.5 -0.5,0.4 -0.9,0.9 -1.5,1.2 -0.6,0.3 -1.2,0.6 -1.9,0.8 -0.7,0.2 -1.5,0.2 -2.4,0.2 -1.2,0 -2.2,-0.2 -3.2,-0.4 -0.9,-0.2 -1.7,-0.7 -2.3,-1.3 -0.6,-0.6 -1.1,-1.3 -1.4,-2.2 -0.3,-0.9 -0.5,-2 -0.5,-3.2 0,-1.2 0.2,-2.2 0.5,-3.2 0.4,-0.9 0.8,-1.8 1.5,-2.4 0.7,-0.7 1.5,-1.2 2.4,-1.5 0.9,-0.4 2,-0.5 3.2,-0.5 0.8,0 1.5,0.1 2.1,0.2 0.6,0.1 1.2,0.3 1.8,0.5 0.5,0.2 1,0.5 1.5,0.9 0.5,0.4 0.8,0.9 1.1,1.4 0.3,0.5 0.5,1.2 0.7,1.9 0.2,0.7 0.3,1.4 0.3,2.4 z m -1.7,-0.1 c 0,-0.6 -0.1,-1.2 -0.2,-1.7 -0.1,-0.5 -0.2,-1 -0.4,-1.5 -0.2,-0.5 -0.5,-0.9 -0.7,-1.2 -0.3,-0.4 -0.7,-0.7 -1.1,-0.9 -0.4,-0.2 -0.9,-0.5 -1.5,-0.6 -0.6,-0.1 -1.2,-0.2 -2,-0.2 -0.9,0 -1.8,0.2 -2.6,0.5 -0.8,0.3 -1.4,0.8 -1.9,1.3 -0.5,0.5 -0.9,1.2 -1.2,2 -0.2,0.8 -0.4,1.6 -0.4,2.5 0,1 0.1,1.9 0.3,2.6 0.2,0.8 0.5,1.4 1,1.9 0.5,0.5 1.1,0.9 1.9,1.2 0.8,0.3 1.7,0.4 2.8,0.4 0.9,0 1.8,-0.2 2.6,-0.5 0.7,-0.3 1.3,-0.8 1.9,-1.3 0.5,-0.5 0.8,-1.2 1.2,-2 0.2,-0.7 0.3,-1.6 0.3,-2.5 z"
   id="path2113" />
					<path
   fill="#17295b"
   stroke="#1c3064"
   stroke-width="0.5"
   stroke-miterlimit="10"
   d="m 487.4,463.2 c -0.2,-0.2 -0.2,-0.4 -0.2,-0.5 v 12.5 h -1.4 v -14.5 h 1.5 L 497,472 c 0.2,0.3 0.4,0.5 0.5,0.7 0.2,0.2 0.2,0.4 0.2,0.5 v -12.5 h 1.5 v 14.5 h -1.5 l -9.8,-11.3 c -0.2,-0.2 -0.4,-0.4 -0.5,-0.7 z"
   id="path2115" />
					<path
   fill="#17295b"
   stroke="#1c3064"
   stroke-width="0.5"
   stroke-miterlimit="10"
   d="m 522.6,460.8 -0.2,1.2 h -8.3 v 5.2 h 7.5 v 1.2 h -7.5 v 5.8 h 8.3 l 0.2,1.2 h -10.1 v -14.5 h 10.1 z"
   id="path2117" />
					<path
   fill="#17295b"
   stroke="#1c3064"
   stroke-width="0.5"
   stroke-miterlimit="10"
   d="m 534,472.9 c 0.3,0.2 0.7,0.3 1.1,0.4 0.4,0.2 0.8,0.2 1.2,0.4 0.4,0.1 0.8,0.2 1.2,0.2 0.4,0 0.8,0.1 1.2,0.1 0.7,0 1.2,-0.1 1.7,-0.2 0.5,-0.1 0.8,-0.3 1.2,-0.5 0.3,-0.2 0.5,-0.5 0.6,-0.8 0.2,-0.3 0.2,-0.5 0.2,-0.9 0,-0.2 0,-0.5 -0.1,-0.6 0,-0.2 -0.1,-0.4 -0.2,-0.5 -0.1,-0.2 -0.2,-0.3 -0.4,-0.5 -0.2,-0.2 -0.4,-0.3 -0.7,-0.5 -0.3,-0.2 -0.6,-0.3 -1,-0.5 -0.4,-0.2 -0.8,-0.3 -1.5,-0.5 -0.5,-0.2 -1.1,-0.4 -1.5,-0.5 -0.4,-0.1 -0.8,-0.4 -1.2,-0.5 -0.3,-0.2 -0.6,-0.4 -0.8,-0.6 -0.2,-0.2 -0.4,-0.5 -0.5,-0.7 -0.2,-0.2 -0.2,-0.5 -0.2,-0.8 -0.1,-0.3 -0.1,-0.6 -0.1,-0.9 0,-0.5 0.1,-1 0.4,-1.5 0.2,-0.5 0.6,-0.9 1.1,-1.2 0.5,-0.3 1,-0.6 1.7,-0.9 0.7,-0.2 1.5,-0.3 2.3,-0.3 0.8,0 1.6,0.1 2.3,0.2 0.7,0.1 1.3,0.4 1.9,0.7 l -0.5,1.2 c -0.8,-0.3 -1.4,-0.5 -2.1,-0.6 -0.6,-0.2 -1.2,-0.2 -1.9,-0.2 -0.7,0 -1.2,0.1 -1.6,0.2 -0.4,0.1 -0.8,0.3 -1.2,0.5 -0.3,0.2 -0.5,0.5 -0.6,0.8 -0.2,0.3 -0.2,0.6 -0.2,0.9 0,0.2 0,0.5 0.1,0.6 0,0.2 0.1,0.4 0.2,0.5 0.1,0.2 0.2,0.3 0.4,0.5 0.2,0.2 0.4,0.3 0.6,0.5 0.3,0.2 0.6,0.3 1,0.5 0.4,0.2 0.8,0.3 1.4,0.5 0.6,0.2 1.2,0.4 1.7,0.6 0.5,0.2 0.8,0.4 1.2,0.6 0.3,0.2 0.6,0.5 0.8,0.6 0.2,0.2 0.4,0.5 0.5,0.7 0.1,0.2 0.2,0.5 0.2,0.7 0,0.2 0.1,0.5 0.1,0.8 0,0.3 -0.1,0.6 -0.2,0.9 -0.1,0.3 -0.2,0.6 -0.5,0.8 -0.2,0.3 -0.5,0.5 -0.8,0.8 -0.3,0.2 -0.6,0.5 -1,0.6 -0.4,0.2 -0.8,0.3 -1.3,0.5 -0.5,0.1 -1,0.2 -1.6,0.2 -0.5,0 -1.1,0 -1.6,-0.1 -0.5,-0.1 -0.9,-0.1 -1.4,-0.2 -0.5,-0.1 -0.8,-0.2 -1.2,-0.3 -0.4,-0.2 -0.7,-0.3 -1,-0.5 z"
   id="path2119" />
				</g>
			</g>
			<g
   id="g2129">
				<g
   id="g2127">
					<path
   fill="#17295b"
   d="m 567.3,473.7 c 0,0.4 -0.1,0.8 -0.2,1.2 -0.1,0.4 -0.2,0.7 -0.4,1 -0.2,0.3 -0.5,0.6 -0.7,0.9 -0.3,0.2 -0.6,0.5 -0.9,0.6 -0.3,0.2 -0.7,0.3 -1.1,0.4 -0.4,0.1 -0.8,0.2 -1.3,0.2 -0.8,0 -1.4,-0.1 -1.9,-0.2 -0.5,-0.2 -1,-0.4 -1.3,-0.8 -0.4,-0.3 -0.6,-0.7 -0.8,-1.2 -0.2,-0.5 -0.2,-1 -0.2,-1.6 0,-0.7 0.2,-1.2 0.3,-1.8 0.2,-0.5 0.5,-0.9 1,-1.3 0.4,-0.3 0.9,-0.6 1.5,-0.8 0.5,-0.2 1.2,-0.2 1.9,-0.2 1.4,0 2.5,0.3 3.2,1 0.5,0.4 0.9,1.3 0.9,2.6 z m -0.9,0 c 0,-0.5 -0.1,-1 -0.2,-1.4 -0.2,-0.4 -0.3,-0.8 -0.6,-1 -0.3,-0.3 -0.6,-0.5 -1.1,-0.6 -0.5,-0.1 -0.9,-0.2 -1.5,-0.2 -0.5,0 -1.1,0.1 -1.5,0.2 -0.5,0.2 -0.8,0.4 -1.2,0.6 -0.3,0.3 -0.6,0.6 -0.8,1 -0.2,0.4 -0.3,0.9 -0.3,1.4 0,1.2 0.3,1.9 0.9,2.5 0.6,0.5 1.5,0.9 2.7,0.9 0.5,0 1,-0.1 1.4,-0.2 0.5,-0.2 0.9,-0.3 1.2,-0.6 0.3,-0.3 0.6,-0.6 0.8,-1.1 0.1,-0.4 0.2,-0.8 0.2,-1.5 z m -2.5,2.1 -1,-1.6 h -0.8 v 1.6 h -0.7 v -4.1 h 1.5 c 0.2,0 0.4,0 0.6,0.1 0.2,0.1 0.3,0.2 0.4,0.2 0.1,0.1 0.2,0.2 0.2,0.4 0.1,0.2 0.1,0.2 0.1,0.4 0,0.2 0,0.2 -0.1,0.4 0,0.2 -0.1,0.2 -0.2,0.3 -0.1,0.2 -0.2,0.2 -0.2,0.3 -0.1,0.1 -0.2,0.2 -0.3,0.2 l 1.2,1.8 z m -0.3,-2.9 c 0,-0.2 -0.1,-0.4 -0.2,-0.5 -0.2,-0.2 -0.3,-0.2 -0.6,-0.2 H 562 v 1.5 h 1.1 c 0.2,-0.2 0.3,-0.2 0.4,-0.4 0.1,0 0.1,-0.2 0.1,-0.4 z"
   id="path2125" />
				</g>
			</g>
		</g>
	</g></g>
</svg>
