<?xml version="1.0" encoding="UTF-8" standalone="no"?>
<!-- Generator: Adobe Illustrator 18.0.0, SVG Export Plug-In . SVG Version: 6.00 Build 0)  -->

<svg
   version="1.1"
   id="BORDADO_copia"
   x="0px"
   y="0px"
   viewBox="0 278 400.00076 157.61099"
   enable-background="new 0 278 612 243"
   xml:space="preserve"
   sodipodi:docname="emprovisa.svg"
   width="400.00076"
   height="157.61099"
   inkscape:version="1.1.2 (0a00cf5339, 2022-02-04)"
   xmlns:inkscape="http://www.inkscape.org/namespaces/inkscape"
   xmlns:sodipodi="http://sodipodi.sourceforge.net/DTD/sodipodi-0.dtd"
   xmlns="http://www.w3.org/2000/svg"
   xmlns:svg="http://www.w3.org/2000/svg"><defs
   id="defs2280" /><sodipodi:namedview
   id="namedview2278"
   pagecolor="#ffffff"
   bordercolor="#666666"
   borderopacity="1.0"
   inkscape:pageshadow="2"
   inkscape:pageopacity="0.0"
   inkscape:pagecheckerboard="0"
   showgrid="false"
   inkscape:zoom="0.77989719"
   inkscape:cx="130.78647"
   inkscape:cy="111.55317"
   inkscape:window-width="1920"
   inkscape:window-height="1011"
   inkscape:window-x="0"
   inkscape:window-y="0"
   inkscape:window-maximized="1"
   inkscape:current-layer="BORDADO_copia" />
<g
   id="g2275"
   transform="matrix(0.70614247,0,0,0.70614247,-15.564088,74.701583)">
	<g
   id="g2227">
		<path
   fill="#004c98"
   d="m 195.3,293.3 c 2.1,0 4.2,0.1 6.4,0.3 35.8,3.2 50.1,38.5 50.1,38.5 0,0 -5.5,-2.3 -13.9,-2.3 -11.6,0 -28.7,4.5 -44.7,25.7 -18.6,24.8 -7.3,52 -1.9,63 5.3,11 15.8,38.9 -2.2,62.8 -16.6,21.9 -42.7,24.3 -53.6,24.3 -3.2,0 -5,-0.2 -5,-0.2 0,0 28.2,-20.6 8.7,-62.2 C 127.5,418.3 99.9,412.5 85.9,410.2 71.8,407.8 47.2,408.1 32.5,376.9 18,346.4 41,314.6 41,314.6 c 0,0 2.5,31.3 50.2,38.4 2.7,0.4 5.3,0.6 7.8,0.6 22.8,0 37.2,-15.9 47.9,-30.2 6.3,-8.5 17.5,-30.1 48.4,-30.1 m 0,-5.4 c -30.4,0 -43.6,19 -50.7,29.2 -0.9,1.2 -1.5,2.2 -2.2,3 -10.9,14.6 -23.7,28 -43.6,28 -2.2,0 -4.6,-0.2 -7,-0.5 -42.3,-6.3 -45.5,-32.1 -45.6,-33.5 -0.2,-2.2 -1.7,-4.2 -3.9,-4.8 -0.5,-0.2 -1,-0.2 -1.5,-0.2 -1.7,0 -3.4,0.9 -4.4,2.3 -1,1.4 -24.6,34.8 -9.1,67.7 6.3,13.4 14.8,22.7 26,28.5 9.5,4.9 18.9,6.1 26.4,7.2 1.8,0.2 3.4,0.5 4.9,0.7 16.5,2.8 39.4,8.9 49.3,30 17.5,37.2 -6.7,55.4 -7,55.6 -1.8,1.3 -2.6,3.6 -2,5.8 0.5,2.2 2.4,3.8 4.6,4 0.2,0 2.2,0.2 5.6,0.2 11.4,0 39.9,-2.5 58,-26.4 8.7,-11.4 12.4,-24.9 11,-40 -1.1,-11.7 -5,-21.9 -8.2,-28.4 -10.8,-22.4 -10.4,-41.7 1.4,-57.4 14.6,-19.4 30.1,-23.5 40.4,-23.5 7.1,0 11.7,1.9 11.8,1.9 0.7,0.3 1.4,0.5 2.1,0.5 1.4,0 2.8,-0.5 3.8,-1.5 1.5,-1.5 2.1,-3.9 1.2,-5.9 -0.2,-0.4 -4,-9.8 -12.5,-19.5 -11.4,-13.1 -26,-20.9 -42,-22.3 -2.2,-0.6 -4.5,-0.7 -6.8,-0.7 z"
   id="path2199" />
		<g
   id="g2219">
			<polyline
   fill="#004c98"
   points="229,364.6 256.2,364.6 256.2,378.2 245.3,378.2 245.3,391.2 255.5,391.2 255.5,404.2      245.3,404.2 245.3,419.3 257.2,419.3 257.2,433 229,433    "
   id="polyline2201" />
			<polygon
   fill="#004c98"
   points="282.5,433 292.6,433 298.2,387.3 298.2,433 312.4,433 312.4,364.6 291.2,364.6 287.5,396.5 283.1,364.6 262,364.6 262,433 276.4,433 276.4,388.8 "
   id="polygon2203" />
			<path
   fill="#004c98"
   d="m 353.7,373.8 c 0,0 -1,-9.3 -15.5,-9.3 h -19.1 v 68.4 h 16.2 v -27.6 c 0,0 7.3,0.3 11.6,-1 0.7,-0.2 2.7,-1.1 3.8,-2 1.4,-1.2 3,-3.8 3.3,-8.7 0.1,0.2 0.8,-13.1 -0.3,-19.8 z m -13.2,16.8 c -0.2,0.6 -0.4,2 -1.9,2.8 -0.8,0.4 -1.7,0.5 -3.2,0.4 v -17.5 c 0,0 5.1,-0.6 5.1,3.8 0.3,4.3 0.4,7.1 0,10.5 z"
   id="path2205" />
			<path
   fill="#004c98"
   d="m 394.7,403.4 c -0.3,-0.7 -0.8,-1.6 -1.4,-2.5 -1,-1.3 -2.6,-2.3 -4.5,-3 -0.5,-0.2 -1.3,-0.5 -2.1,-0.7 8.7,-1.1 8.4,-7.1 8.7,-12 0,0 0.2,-2.5 -0.1,-5.6 -0.2,-1.9 0.2,-6.3 -2.9,-10 -2.9,-3.6 -6.9,-5.1 -14.4,-5.1 h -19 v 68.4 h 16.2 V 402 c 0,0 1.5,0 2.8,0.4 1.2,0.3 2.2,1.4 2.2,4.6 v 26 h 15.3 v -26.7 c 0,0 -0.2,-1.3 -0.8,-2.9 z m -19.5,-27.1 c 0,0 5.1,-0.6 5,4.1 0.2,3.8 0.1,4.6 0,7.2 0,0.3 -0.2,1.3 -0.5,2.2 -0.3,1.1 -2.2,1.6 -2.8,1.7 -0.5,0 -1.1,0 -1.9,0 z"
   id="path2207" />
			<path
   fill="#004c98"
   d="m 439.2,409.1 c 0,-4 0,-11.4 0,-11.4 0,0 0,-7.9 0,-10.6 0,-4 -0.5,-10 -0.5,-10 0,0 -1,-9.6 -11.2,-13.1 0,0 -3,-0.9 -7.1,-0.9 -4.1,0 -7.1,0.9 -7.1,0.9 -10.2,3.5 -11.2,13.1 -11.2,13.1 0,0 -0.6,6 -0.6,10 0,2.7 0,10.6 0,10.6 0,0 0,7.5 0,11.4 0,4 -0.4,10.7 1.5,14.8 2.5,5.6 6.6,7.8 6.6,7.8 3.4,2.1 7.3,2.6 10.7,2.5 3.3,0.1 7.3,-0.5 10.7,-2.5 0,0 4.2,-2.2 6.7,-7.8 1.8,-4.1 1.5,-10.7 1.5,-14.8 z m -16.7,11.4 c 0,1.3 -1,2.4 -2.2,2.4 -1.2,0 -2.2,-1.1 -2.2,-2.4 0,0 -0.4,-7.6 -0.4,-21.6 0,-9.6 0.1,-16.1 0.2,-19.5 0.1,-1.5 0.2,-2.5 0.2,-2.5 0,-1.3 1,-2.4 2.2,-2.4 1.2,0 2.2,1.1 2.2,2.4 0,0 0.2,0.9 0.2,2.5 0.1,3.2 0.2,9.8 0.2,19.5 0,14 -0.4,21.6 -0.4,21.6 z"
   id="path2209" />
			<polygon
   fill="#004c98"
   points="484.1,364.6 475.8,433 450.8,433 441.5,364.6 458.9,364.6 463,411.8 466.9,364.6 "
   id="polygon2211" />
			<rect
   x="486.79999"
   y="364.60001"
   fill="#004c98"
   width="16.4"
   height="68.400002"
   id="rect2213" />
			<path
   fill="#004c98"
   d="m 571.8,432.9 h 16.7 l -9.2,-68.4 h -23.9 l -8.3,68.4 H 564 l 0.9,-12.4 h 5.9 z m -6.9,-24.4 3.2,-28.4 2.3,28.4 z"
   id="path2215" />
			<path
   fill="#004c98"
   d="m 545.5,408.8 c 0,0 0,0 0,0 0.1,0 0.7,-8.7 -11,-15.8 0,0 -1.3,-1 -3.2,-2.4 -1.6,-1.2 -3.9,-2.5 -5.4,-3.9 -1.9,-1.7 -1.7,-3.9 -1.9,-6.5 -0.6,-7.3 5.2,-6 5.2,-3.4 0,0.2 0,8.6 0,8.6 h 15.5 c 0,0 0.2,-5.6 -0.3,-10.1 0,0 -0.2,-2.5 -1.4,-4.9 -0.7,-1.3 -1.7,-2.2 -3.2,-3.5 0,0 -2.3,-1.7 -6,-2.8 -2.7,-0.8 -6.2,-1.2 -10.4,-0.8 -0.7,0.1 -5.5,0.7 -8.7,2.9 -2,1.4 -3.9,3.6 -4.9,6.4 0,0 -2.2,8.3 -0.8,14.8 0,0 0.2,8.6 9,13.5 0,0 8.7,6.5 10.1,7.8 0.1,0.1 0.2,0.1 0.2,0.2 1.9,1.7 2,5.2 2.1,7.8 0,4.9 -1.5,5.9 -3.4,6 -1.8,0.2 -2.9,-1.6 -2.8,-4 0,-0.2 0.2,-10.3 0.2,-10.3 h -15.5 c 0,0 -0.1,7.6 0.5,12 0,0 0.6,3.6 1.9,6 0.7,1.3 1.6,2.8 3.1,3.9 0,0 2.3,2.1 6.1,3.2 2.7,0.8 6.3,1.2 10.4,0.8 0.7,-0.1 5.8,-0.9 9,-3.1 2,-1.4 4.1,-3.9 5,-6.6 -0.1,0 1.6,-9.3 0.6,-15.8 z"
   id="path2217" />
		</g>
		<g
   id="g2225">
			<path
   fill="#eec900"
   d="m 41,314.6 c 0,0 2.5,31.3 50.2,38.5 27.4,4.1 43.8,-13.8 55.7,-29.7 6.7,-9 18.9,-33 54.9,-29.8 35.8,3.2 50.1,38.5 50.1,38.5 0,0 -31.1,-13.3 -58.6,23.3 -18.6,24.8 -7.3,52 -1.9,63 5.3,11 15.8,38.9 -2.2,62.8 -21.4,28.2 -58.6,24.1 -58.6,24.1 0,0 28.2,-20.6 8.7,-62.2 C 127.6,418.2 100,412.4 86,410.1 71.9,407.7 47.3,408 32.6,376.8 18,346.4 41,314.6 41,314.6 Z"
   id="path2221" />
			<path
   fill="#ffffff"
   d="m 195.3,293.3 c 2.1,0 4.2,0.1 6.4,0.3 35.8,3.2 50.1,38.5 50.1,38.5 0,0 -5.5,-2.3 -13.9,-2.3 -11.6,0 -28.7,4.5 -44.7,25.7 -18.6,24.8 -7.3,52 -1.9,63 5.3,11 15.8,38.9 -2.2,62.8 -16.6,21.9 -42.7,24.3 -53.6,24.3 -3.2,0 -5,-0.2 -5,-0.2 0,0 28.2,-20.6 8.7,-62.2 C 127.5,418.3 99.9,412.5 85.9,410.2 71.8,407.8 47.2,408.1 32.5,376.9 18,346.4 41,314.6 41,314.6 c 0,0 2.5,31.3 50.2,38.5 2.7,0.4 5.3,0.6 7.8,0.6 22.8,0 37.2,-15.9 47.9,-30.2 6.3,-8.6 17.5,-30.2 48.4,-30.2 m 0,-2.3 c -28.8,0 -41.3,18.2 -48.1,27.9 -0.9,1.2 -1.5,2.2 -2.2,3.1 -10.8,14.5 -24.8,29.4 -46.1,29.4 -2.4,0 -4.9,-0.2 -7.5,-0.5 C 72.6,348 58.3,340.9 50,330.1 43.8,322 43,314.6 43,314.5 c -0.1,-0.9 -0.8,-1.7 -1.6,-2 -0.2,-0.1 -0.4,-0.1 -0.6,-0.1 -0.7,0 -1.4,0.3 -1.9,0.9 -0.2,0.3 -6,8.3 -10,20.3 -5.3,15.9 -4.9,31.2 1.1,44.2 13.5,28.9 35.5,31.8 50,33.8 1.8,0.2 3.5,0.5 5,0.8 17.2,2.9 41.1,9.3 51.6,31.8 7.7,16.6 8.8,31.6 3.1,44.7 -4.3,9.7 -11,14.8 -11.1,14.8 -0.8,0.5 -1.1,1.5 -0.8,2.4 0.2,0.9 1,1.5 1.9,1.6 0.1,0 2,0.2 5.3,0.2 10.9,0 38.2,-2.5 55.4,-25.2 8.2,-10.8 11.7,-23.5 10.4,-37.8 -1,-11.3 -4.9,-21.1 -7.9,-27.4 -11.4,-23.6 -10.8,-44 1.7,-60.7 15.4,-20.5 31.8,-24.8 42.9,-24.8 7.8,0 13,2.2 13.1,2.2 0.3,0.2 0.6,0.2 0.9,0.2 0.6,0 1.2,-0.2 1.6,-0.6 0.6,-0.6 0.9,-1.6 0.5,-2.5 -0.2,-0.4 -3.8,-9.3 -12,-18.7 -10.9,-12.5 -24.7,-19.9 -40,-21.3 -1.8,-0.2 -4.1,-0.3 -6.3,-0.3 z"
   id="path2223" />
		</g>
	</g>
	<g
   id="g2273">
		<path
   fill="#004c98"
   d="m 583.1,494.8 c -0.5,-0.5 -0.8,-1 -0.8,-1.7 0,-0.7 0.2,-1.2 0.8,-1.7 0.5,-0.5 1.2,-0.7 1.9,-0.7 0.8,0 1.4,0.2 1.9,0.7 0.5,0.5 0.8,1 0.8,1.7 0,0.7 -0.2,1.2 -0.8,1.7 -0.5,0.5 -1.2,0.7 -1.9,0.7 -0.7,0 -1.4,-0.3 -1.9,-0.7 z m 4.4,-20.5 -0.5,14.4 h -3.7 l -0.5,-14.4 z"
   id="path2229" />
		<path
   fill="#004c98"
   d="m 238,494.3 v -4.6 c 0.8,0.7 1.8,1.2 2.8,1.6 1,0.4 2,0.5 3,0.5 0.6,0 1.1,-0.1 1.5,-0.2 0.5,-0.1 0.8,-0.2 1.1,-0.5 0.3,-0.2 0.5,-0.4 0.7,-0.7 0.2,-0.2 0.2,-0.5 0.2,-0.9 0,-0.4 -0.1,-0.8 -0.4,-1.1 -0.2,-0.3 -0.5,-0.6 -0.9,-0.9 -0.4,-0.3 -0.9,-0.5 -1.5,-0.8 -0.5,-0.2 -1.2,-0.5 -1.8,-0.8 -1.6,-0.7 -2.9,-1.5 -3.6,-2.5 -0.8,-1 -1.2,-2.2 -1.2,-3.6 0,-1.1 0.2,-2 0.6,-2.8 0.5,-0.8 1,-1.4 1.8,-1.9 0.8,-0.5 1.6,-0.9 2.6,-1.1 1,-0.2 2,-0.4 3.2,-0.4 1.1,0 2,0.1 2.9,0.2 0.9,0.1 1.6,0.3 2.3,0.6 v 4.3 c -0.4,-0.2 -0.7,-0.5 -1.2,-0.6 -0.4,-0.2 -0.9,-0.3 -1.2,-0.5 -0.5,-0.2 -0.9,-0.2 -1.3,-0.2 -0.5,-0.1 -0.9,-0.1 -1.2,-0.1 -0.5,0 -1,0.1 -1.5,0.2 -0.5,0.1 -0.8,0.2 -1.1,0.5 -0.3,0.2 -0.5,0.4 -0.7,0.7 -0.2,0.2 -0.2,0.5 -0.2,0.9 0,0.4 0.1,0.7 0.3,0.9 0.2,0.3 0.5,0.5 0.8,0.8 0.3,0.2 0.8,0.5 1.2,0.7 0.5,0.2 1,0.5 1.6,0.7 0.9,0.4 1.5,0.7 2.2,1.1 0.7,0.4 1.2,0.9 1.7,1.3 0.5,0.5 0.9,1.1 1.1,1.7 0.2,0.6 0.4,1.4 0.4,2.2 0,1.2 -0.2,2.2 -0.7,2.9 -0.5,0.8 -1,1.5 -1.8,1.9 -0.8,0.5 -1.6,0.9 -2.6,1.1 -1,0.2 -2.1,0.3 -3.2,0.3 -1.2,0 -2.2,-0.1 -3.2,-0.3 -1.1,0.1 -1.9,-0.2 -2.7,-0.6 z"
   id="path2231" />
		<path
   fill="#004c98"
   d="m 269.3,495.1 h -4.6 v -2.2 h -0.1 c -1.2,1.8 -2.6,2.6 -4.6,2.6 -3.5,0 -5.2,-2.1 -5.2,-6.3 v -9 h 4.6 v 8.6 c 0,2.1 0.9,3.2 2.5,3.2 0.9,0 1.5,-0.3 2,-0.9 0.5,-0.5 0.8,-1.4 0.8,-2.3 v -8.5 h 4.6 z"
   id="path2233" />
		<path
   fill="#004c98"
   d="m 280.9,494.3 v -4.6 c 0.9,0.7 1.8,1.2 2.8,1.6 1,0.4 2,0.5 3,0.5 0.6,0 1.1,-0.1 1.5,-0.2 0.4,-0.1 0.8,-0.2 1.1,-0.5 0.3,-0.2 0.5,-0.4 0.7,-0.7 0.2,-0.2 0.2,-0.5 0.2,-0.9 0,-0.4 -0.1,-0.8 -0.4,-1.1 -0.2,-0.3 -0.5,-0.6 -0.9,-0.9 -0.4,-0.3 -0.9,-0.5 -1.5,-0.8 -0.5,-0.2 -1.2,-0.5 -1.8,-0.8 -1.6,-0.7 -2.9,-1.5 -3.6,-2.5 -0.8,-1 -1.2,-2.2 -1.2,-3.6 0,-1.1 0.2,-2 0.6,-2.8 0.5,-0.8 1,-1.4 1.8,-1.9 0.8,-0.5 1.6,-0.9 2.6,-1.1 1,-0.2 2,-0.4 3.2,-0.4 1.1,0 2,0.1 2.9,0.2 0.9,0.1 1.6,0.3 2.3,0.6 v 4.3 c -0.4,-0.2 -0.7,-0.5 -1.2,-0.6 -0.4,-0.2 -0.9,-0.3 -1.2,-0.5 -0.5,-0.2 -0.9,-0.2 -1.3,-0.2 -0.5,-0.1 -0.9,-0.1 -1.2,-0.1 -0.5,0 -1,0.1 -1.5,0.2 -0.5,0.1 -0.8,0.2 -1.1,0.5 -0.3,0.2 -0.5,0.4 -0.7,0.7 -0.2,0.2 -0.2,0.5 -0.2,0.9 0,0.4 0.1,0.7 0.3,0.9 0.2,0.3 0.5,0.5 0.8,0.8 0.3,0.2 0.8,0.5 1.2,0.7 0.5,0.2 1,0.5 1.6,0.7 0.9,0.4 1.5,0.7 2.2,1.1 0.7,0.4 1.2,0.9 1.7,1.3 0.5,0.5 0.9,1.1 1.1,1.7 0.2,0.6 0.4,1.4 0.4,2.2 0,1.2 -0.2,2.2 -0.7,2.9 -0.5,0.8 -1,1.5 -1.8,1.9 -0.8,0.5 -1.6,0.9 -2.6,1.1 -1,0.2 -2.1,0.3 -3.2,0.3 -1.2,0 -2.2,-0.1 -3.2,-0.3 -1.1,0.1 -1.9,-0.2 -2.7,-0.6 z"
   id="path2235" />
		<path
   fill="#004c98"
   d="m 311.5,489 h -9.7 c 0.2,2.2 1.5,3.2 4.1,3.2 1.6,0 3.1,-0.4 4.3,-1.2 v 3.3 c -1.4,0.8 -3.2,1.1 -5.3,1.1 -2.4,0 -4.3,-0.7 -5.6,-2 -1.3,-1.3 -2,-3.2 -2,-5.6 0,-2.5 0.7,-4.4 2.2,-5.9 1.5,-1.5 3.2,-2.2 5.3,-2.2 2.2,0 3.9,0.6 5,1.9 1.2,1.3 1.8,3 1.8,5.3 z m -4.3,-2.8 c 0,-2.2 -0.9,-3.2 -2.5,-3.2 -0.8,0 -1.4,0.3 -1.9,0.9 -0.5,0.6 -0.9,1.4 -1,2.3 z"
   id="path2237" />
		<path
   fill="#004c98"
   d="m 328.8,493.4 c 0,2.8 -0.8,4.9 -2.4,6.4 -1.6,1.5 -3.9,2.2 -7,2.2 -2,0 -3.6,-0.3 -4.8,-0.9 v -3.9 c 1.5,0.9 3.1,1.3 4.6,1.3 1.5,0 2.8,-0.4 3.6,-1.2 0.9,-0.9 1.3,-1.9 1.3,-3.3 v -1 H 324 c -1.1,1.7 -2.6,2.5 -4.6,2.5 -1.9,0 -3.4,-0.7 -4.5,-2 -1.1,-1.3 -1.7,-3.1 -1.7,-5.4 0,-2.6 0.6,-4.5 1.9,-6 1.2,-1.5 2.9,-2.2 4.9,-2.2 1.8,0 3.2,0.7 4.1,2.1 h 0.1 v -1.6 h 4.6 z m -4.6,-5.4 v -1.2 c 0,-0.9 -0.3,-1.8 -0.9,-2.4 -0.5,-0.7 -1.3,-1 -2.2,-1 -1,0 -1.9,0.4 -2.4,1.2 -0.6,0.8 -0.9,1.9 -0.9,3.3 0,1.2 0.3,2.2 0.9,2.9 0.5,0.7 1.3,1.1 2.2,1.1 0.9,0 1.7,-0.4 2.3,-1.1 0.7,-0.7 1,-1.6 1,-2.8 z"
   id="path2239" />
		<path
   fill="#004c98"
   d="m 346.8,495.1 h -4.6 v -2.2 h -0.1 c -1.2,1.8 -2.6,2.6 -4.6,2.6 -3.5,0 -5.2,-2.1 -5.2,-6.3 v -9 h 4.6 v 8.6 c 0,2.1 0.9,3.2 2.5,3.2 0.9,0 1.5,-0.3 2,-0.9 0.5,-0.5 0.8,-1.4 0.8,-2.3 v -8.5 h 4.6 z"
   id="path2241" />
		<path
   fill="#004c98"
   d="m 360.3,484.4 c -0.5,-0.3 -1.2,-0.5 -1.9,-0.5 -1,0 -1.8,0.4 -2.3,1.1 -0.5,0.7 -0.8,1.7 -0.8,3 v 7.1 h -4.6 v -14.9 h 4.6 v 2.8 h 0.1 c 0.7,-2 2,-3 3.9,-3 0.5,0 0.9,0.1 1.2,0.2 z"
   id="path2243" />
		<path
   fill="#004c98"
   d="m 364.8,477.9 c -0.8,0 -1.4,-0.2 -1.9,-0.7 -0.5,-0.5 -0.8,-1 -0.8,-1.7 0,-0.7 0.2,-1.2 0.8,-1.7 0.5,-0.5 1.2,-0.6 1.9,-0.6 0.7,0 1.4,0.2 1.9,0.6 0.5,0.5 0.8,1 0.8,1.7 0,0.7 -0.2,1.2 -0.8,1.7 -0.4,0.5 -1.1,0.7 -1.9,0.7 z m 2.2,12.2 c 0,0.6 0.2,1.1 0.5,1.5 0.3,0.3 0.7,0.5 1.2,0.5 0.2,0 0.5,0 0.8,-0.1 0.2,-0.1 0.5,-0.1 0.8,-0.2 v 3.2 c -0.5,0.2 -1.2,0.2 -1.8,0.4 -0.6,0.1 -1.2,0.2 -1.9,0.2 -0.6,0 -1.2,-0.1 -1.7,-0.3 -0.5,-0.2 -0.9,-0.5 -1.3,-0.9 -0.4,-0.4 -0.6,-0.9 -0.9,-1.4 -0.2,-0.5 -0.3,-1.2 -0.3,-1.9 v -11 h 4.6 z"
   id="path2245" />
		<path
   fill="#004c98"
   d="m 386.8,495.1 h -4.6 V 493 h -0.1 c -1.1,1.6 -2.5,2.4 -4.6,2.4 -1.9,0 -3.3,-0.7 -4.5,-2 -1.2,-1.3 -1.7,-3.2 -1.7,-5.5 0,-2.5 0.6,-4.4 1.9,-6 1.2,-1.5 2.9,-2.2 4.9,-2.2 1.9,0 3.2,0.7 4,2.1 h 0.1 V 473 h 4.6 z m -4.6,-7.2 v -1.1 c 0,-1 -0.3,-1.8 -0.9,-2.4 -0.5,-0.6 -1.3,-0.9 -2.2,-0.9 -1,0 -1.8,0.4 -2.4,1.2 -0.5,0.8 -0.9,1.9 -0.9,3.3 0,1.3 0.3,2.3 0.9,3 0.5,0.7 1.3,1.1 2.3,1.1 0.9,0 1.7,-0.4 2.2,-1.1 0.7,-0.9 1,-1.9 1,-3.1 z"
   id="path2247" />
		<path
   fill="#004c98"
   d="m 403,495.1 h -4.3 V 493 h -0.1 c -1,1.7 -2.5,2.5 -4.4,2.5 -1.5,0 -2.6,-0.4 -3.4,-1.2 -0.9,-0.9 -1.2,-1.9 -1.2,-3.2 0,-2.9 1.7,-4.6 5.1,-5 l 4,-0.5 c 0,-1.6 -0.8,-2.5 -2.6,-2.5 -1.8,0 -3.5,0.5 -5,1.6 v -3.5 c 0.6,-0.3 1.5,-0.6 2.6,-0.9 1.1,-0.2 2.1,-0.4 3,-0.4 4.3,0 6.3,2.1 6.3,6.3 z m -4.4,-6 v -1 l -2.7,0.4 c -1.5,0.2 -2.2,0.9 -2.2,2 0,0.5 0.2,0.9 0.5,1.3 0.4,0.3 0.9,0.5 1.5,0.5 0.8,0 1.5,-0.3 2.1,-0.9 0.5,-0.7 0.8,-1.4 0.8,-2.3 z"
   id="path2249" />
		<path
   fill="#004c98"
   d="m 421.1,495.1 h -4.6 V 493 h -0.1 c -1.1,1.6 -2.5,2.4 -4.6,2.4 -1.9,0 -3.3,-0.7 -4.5,-2 -1.2,-1.3 -1.7,-3.2 -1.7,-5.5 0,-2.5 0.6,-4.4 1.9,-6 1.2,-1.5 2.9,-2.2 4.9,-2.2 1.9,0 3.2,0.7 4,2.1 h 0.1 V 473 h 4.6 z m -4.4,-7.2 v -1.1 c 0,-1 -0.3,-1.8 -0.8,-2.4 -0.5,-0.6 -1.3,-0.9 -2.2,-0.9 -1,0 -1.8,0.4 -2.4,1.2 -0.5,0.8 -0.9,1.9 -0.9,3.3 0,1.3 0.3,2.3 0.9,3 0.5,0.7 1.3,1.1 2.3,1.1 0.9,0 1.7,-0.4 2.2,-1.1 0.5,-0.9 0.9,-1.9 0.9,-3.1 z"
   id="path2251" />
		<path
   fill="#004c98"
   d="m 452,495.1 h -5.1 l -1.5,-4.6 H 438 l -1.5,4.6 h -5.1 l 7.6,-20.9 h 5.6 z m -7.7,-8.2 -2.2,-7 c -0.2,-0.5 -0.3,-1.2 -0.4,-1.9 h -0.1 c -0.1,0.6 -0.2,1.2 -0.4,1.9 l -2.2,7 z"
   id="path2253" />
		<path
   fill="#004c98"
   d="M 453.2,494.8 V 491 c 0.8,0.5 1.5,0.8 2.2,1 0.8,0.2 1.5,0.3 2.2,0.3 0.8,0 1.5,-0.1 1.9,-0.3 0.5,-0.2 0.7,-0.5 0.7,-1 0,-0.3 -0.1,-0.5 -0.3,-0.7 -0.2,-0.2 -0.5,-0.4 -0.8,-0.5 -0.3,-0.2 -0.7,-0.3 -1.1,-0.4 -0.4,-0.1 -0.8,-0.2 -1.2,-0.4 -0.6,-0.2 -1.1,-0.5 -1.5,-0.7 -0.5,-0.2 -0.8,-0.5 -1.2,-0.9 -0.3,-0.3 -0.5,-0.7 -0.7,-1.2 -0.2,-0.5 -0.2,-1 -0.2,-1.6 0,-0.9 0.2,-1.5 0.5,-2.2 0.3,-0.7 0.8,-1.1 1.5,-1.5 0.6,-0.4 1.3,-0.7 2.1,-0.9 0.8,-0.2 1.6,-0.2 2.5,-0.2 0.7,0 1.3,0.1 2,0.2 0.7,0.1 1.3,0.2 2,0.5 v 3.6 c -0.6,-0.3 -1.2,-0.6 -1.9,-0.8 -0.7,-0.2 -1.3,-0.2 -1.9,-0.2 -0.3,0 -0.6,0 -0.8,0.1 -0.2,0.1 -0.5,0.2 -0.7,0.2 -0.2,0.1 -0.4,0.2 -0.5,0.4 -0.2,0.2 -0.2,0.3 -0.2,0.5 0,0.2 0.1,0.5 0.2,0.7 0.2,0.2 0.4,0.4 0.7,0.5 0.3,0.2 0.6,0.2 0.9,0.4 0.3,0.1 0.7,0.2 1,0.3 0.6,0.2 1.2,0.5 1.6,0.7 0.5,0.2 0.9,0.5 1.2,0.9 0.4,0.3 0.6,0.8 0.8,1.2 0.2,0.5 0.3,1 0.3,1.6 0,0.9 -0.2,1.6 -0.5,2.2 -0.4,0.6 -0.9,1.2 -1.5,1.5 -0.6,0.4 -1.4,0.7 -2.2,0.9 -0.8,0.2 -1.7,0.3 -2.5,0.3 -1.7,0 -3.2,-0.3 -4.6,-0.7 z"
   id="path2255" />
		<path
   fill="#004c98"
   d="m 480.6,489 h -9.7 c 0.2,2.2 1.5,3.2 4.1,3.2 1.6,0 3.1,-0.4 4.3,-1.2 v 3.3 c -1.4,0.8 -3.2,1.1 -5.3,1.1 -2.4,0 -4.3,-0.7 -5.6,-2 -1.3,-1.3 -2,-3.2 -2,-5.6 0,-2.5 0.7,-4.4 2.2,-5.9 1.5,-1.5 3.2,-2.2 5.3,-2.2 2.2,0 3.9,0.6 5,1.9 1.2,1.3 1.8,3 1.8,5.3 z m -4.2,-2.8 c 0,-2.2 -0.8,-3.2 -2.5,-3.2 -0.8,0 -1.4,0.3 -1.9,0.9 -0.5,0.6 -0.8,1.4 -1,2.3 z"
   id="path2257" />
		<path
   fill="#004c98"
   d="m 497.9,493.4 c 0,2.8 -0.8,4.9 -2.4,6.4 -1.6,1.5 -3.9,2.2 -7,2.2 -2,0 -3.6,-0.3 -4.8,-0.9 v -3.9 c 1.5,0.9 3.1,1.3 4.6,1.3 1.5,0 2.8,-0.4 3.6,-1.2 0.8,-0.9 1.3,-1.9 1.3,-3.3 v -1 h -0.1 c -1.1,1.7 -2.6,2.5 -4.6,2.5 -1.9,0 -3.4,-0.7 -4.5,-2 -1.1,-1.3 -1.7,-3.1 -1.7,-5.4 0,-2.6 0.6,-4.5 1.9,-6 1.2,-1.5 2.9,-2.2 4.9,-2.2 1.8,0 3.2,0.7 4.1,2.1 h 0.1 v -1.6 h 4.6 z m -4.4,-5.4 v -1.2 c 0,-0.9 -0.3,-1.8 -0.8,-2.4 -0.5,-0.7 -1.3,-1 -2.2,-1 -1,0 -1.9,0.4 -2.4,1.2 -0.6,0.8 -0.8,1.9 -0.8,3.3 0,1.2 0.3,2.2 0.8,2.9 0.5,0.7 1.3,1.1 2.2,1.1 0.9,0 1.7,-0.4 2.3,-1.1 0.6,-0.7 0.9,-1.6 0.9,-2.8 z"
   id="path2259" />
		<path
   fill="#004c98"
   d="m 516,495.1 h -4.6 v -2.2 h -0.1 c -1.2,1.8 -2.6,2.6 -4.6,2.6 -3.5,0 -5.2,-2.1 -5.2,-6.3 v -9 h 4.6 v 8.6 c 0,2.1 0.8,3.2 2.5,3.2 0.8,0 1.5,-0.3 2,-0.9 0.5,-0.5 0.8,-1.4 0.8,-2.3 v -8.5 h 4.6 z"
   id="path2261" />
		<path
   fill="#004c98"
   d="m 529.5,484.4 c -0.5,-0.3 -1.2,-0.5 -1.9,-0.5 -1,0 -1.8,0.4 -2.3,1.1 -0.5,0.7 -0.8,1.7 -0.8,3 v 7.1 h -4.6 v -14.9 h 4.6 v 2.8 h 0.1 c 0.7,-2 2,-3 3.9,-3 0.5,0 0.8,0.1 1.2,0.2 z"
   id="path2263" />
		<path
   fill="#004c98"
   d="m 544.1,495.1 h -4.3 V 493 h -0.1 c -1,1.7 -2.5,2.5 -4.4,2.5 -1.5,0 -2.5,-0.4 -3.4,-1.2 -0.8,-0.9 -1.2,-1.9 -1.2,-3.2 0,-2.9 1.7,-4.6 5.1,-5 l 4,-0.5 c 0,-1.6 -0.8,-2.5 -2.6,-2.5 -1.8,0 -3.5,0.5 -5,1.6 v -3.5 c 0.6,-0.3 1.5,-0.6 2.6,-0.9 1.1,-0.2 2.1,-0.4 3,-0.4 4.3,0 6.3,2.1 6.3,6.3 z m -4.3,-6 v -1 l -2.7,0.4 c -1.5,0.2 -2.2,0.9 -2.2,2 0,0.5 0.2,0.9 0.5,1.3 0.4,0.3 0.8,0.5 1.5,0.5 0.8,0 1.5,-0.3 2.1,-0.9 0.4,-0.7 0.8,-1.4 0.8,-2.3 z"
   id="path2265" />
		<path
   fill="#004c98"
   d="m 562.2,495.1 h -4.6 V 493 h -0.1 c -1.1,1.6 -2.5,2.4 -4.6,2.4 -1.9,0 -3.3,-0.7 -4.5,-2 -1.2,-1.3 -1.7,-3.2 -1.7,-5.5 0,-2.5 0.6,-4.4 1.9,-6 1.2,-1.5 2.9,-2.2 4.9,-2.2 1.9,0 3.2,0.7 4,2.1 h 0.1 V 473 h 4.6 z m -4.4,-7.2 v -1.1 c 0,-1 -0.3,-1.8 -0.8,-2.4 -0.5,-0.6 -1.3,-0.9 -2.2,-0.9 -1,0 -1.8,0.4 -2.4,1.2 -0.5,0.8 -0.8,1.9 -0.8,3.3 0,1.3 0.3,2.3 0.8,3 0.5,0.7 1.3,1.1 2.3,1.1 0.9,0 1.7,-0.4 2.2,-1.1 0.5,-0.9 0.9,-1.9 0.9,-3.1 z"
   id="path2267" />
		<path
   fill="#004c98"
   d="m 578.5,495.1 h -4.3 V 493 h -0.1 c -1,1.7 -2.5,2.5 -4.4,2.5 -1.5,0 -2.5,-0.4 -3.4,-1.2 -0.8,-0.9 -1.2,-1.9 -1.2,-3.2 0,-2.9 1.7,-4.6 5.1,-5 l 4,-0.5 c 0,-1.6 -0.8,-2.5 -2.6,-2.5 -1.8,0 -3.5,0.5 -5,1.6 v -3.5 c 0.6,-0.3 1.5,-0.6 2.6,-0.9 1.1,-0.2 2.2,-0.4 3,-0.4 4.3,0 6.3,2.1 6.3,6.3 z m -4.3,-6 v -1 l -2.7,0.4 c -1.5,0.2 -2.2,0.9 -2.2,2 0,0.5 0.2,0.9 0.5,1.3 0.4,0.3 0.9,0.5 1.5,0.5 0.9,0 1.5,-0.3 2.1,-0.9 0.5,-0.7 0.8,-1.4 0.8,-2.3 z"
   id="path2269" />
		<path
   fill="#004c98"
   d="m 229.8,484 c -0.5,-0.5 -0.8,-1 -0.8,-1.7 0,-0.7 0.2,-1.2 0.8,-1.7 0.5,-0.5 1.2,-0.7 1.9,-0.7 0.8,0 1.4,0.2 1.9,0.7 0.5,0.5 0.8,1 0.8,1.7 0,0.7 -0.2,1.2 -0.8,1.7 -0.5,0.5 -1.2,0.7 -1.9,0.7 -0.8,-0.1 -1.4,-0.3 -1.9,-0.7 z m 0,2.6 h 3.7 L 234,501 h -4.8 z"
   id="path2271" />
	</g>
</g>
</svg>
