<?xml version="1.0" encoding="UTF-8" standalone="no"?>
<!-- Generator: Adobe Illustrator 18.0.0, SVG Export Plug-In . SVG Version: 6.00 Build 0)  -->

<svg
   version="1.1"
   id="BORDADO_copia"
   x="0px"
   y="0px"
   viewBox="0 0 400 310.6611"
   enable-background="new 0 0 523.5 421.5"
   xml:space="preserve"
   sodipodi:docname="grupo_ene.svg"
   width="400"
   height="310.6611"
   inkscape:version="1.1.2 (0a00cf5339, 2022-02-04)"
   xmlns:inkscape="http://www.inkscape.org/namespaces/inkscape"
   xmlns:sodipodi="http://sodipodi.sourceforge.net/DTD/sodipodi-0.dtd"
   xmlns="http://www.w3.org/2000/svg"
   xmlns:svg="http://www.w3.org/2000/svg"><defs
   id="defs1324" /><sodipodi:namedview
   id="namedview1322"
   pagecolor="#ffffff"
   bordercolor="#666666"
   borderopacity="1.0"
   inkscape:pageshadow="2"
   inkscape:pageopacity="0.0"
   inkscape:pagecheckerboard="0"
   showgrid="false"
   inkscape:zoom="0.65090731"
   inkscape:cx="66.061633"
   inkscape:cy="196.64858"
   inkscape:window-width="1920"
   inkscape:window-height="1011"
   inkscape:window-x="0"
   inkscape:window-y="0"
   inkscape:window-maximized="1"
   inkscape:current-layer="BORDADO_copia" />
<g
   id="g1319"
   transform="matrix(0.79412349,0,0,0.79412349,-9.7677189,-11.355966)">
	<g
   id="g1219">
		<g
   id="g1175">
			<path
   fill="#eec900"
   d="m 255.6,25.4 -8.4,-10 c -6,0.7 -12,1.8 -17.8,3.2 l 7.5,9.4 c 6.2,-1.4 12.4,-2.2 18.7,-2.6 z"
   id="path1159" />
			<path
   fill="#eec900"
   d="m 397,194.1 c -2.1,8 -4.8,15.7 -8,23.1 l 8.5,10.6 c 3.5,-7.2 6.4,-14.8 8.7,-22.7 z"
   id="path1161" />
			<path
   fill="#eec900"
   d="m 205.9,38.4 -6.8,-9.1 c -4.6,2.2 -9.1,4.6 -13.4,7.2 l 6.6,9.2 c 4.4,-2.6 8.9,-5.1 13.6,-7.3 z"
   id="path1163" />
			<path
   fill="#eec900"
   d="m 350.5,268.4 6.7,9.5 c 5.4,-4.4 10.6,-9.2 15.3,-14.3 l -7.2,-9.8 c -4.6,5.3 -9.5,10.1 -14.8,14.6 z"
   id="path1165" />
			<path
   fill="#eec900"
   d="m 168.6,64.1 -6.3,-9.6 c -3.7,3.4 -7.2,7 -10.6,10.8 l 6.2,10 c 3.4,-4 6.9,-7.7 10.7,-11.2 z"
   id="path1167" />
			<path
   fill="#eec900"
   d="m 296.9,296.3 5.8,9.3 c 6.7,-1.9 13.3,-4.2 19.6,-6.9 l -6,-9.2 c -6.2,2.7 -12.7,5 -19.4,6.8 z"
   id="path1169" />
			<path
   fill="#eec900"
   d="m 133.9,90.7 c -2.9,5.2 -5.4,10.6 -7.6,16.2 l 6.7,12.2 c 2,-6 4.4,-11.8 7.2,-17.3 z"
   id="path1171" />
			<path
   fill="#eec900"
   d="m 229.9,296.4 6.8,12.4 c 7.5,1.4 15.2,2.1 23.3,2.3 l -6.2,-10.7 c -8.1,-0.6 -16.1,-2 -23.9,-4 z"
   id="path1173" />
		</g>
		<g
   id="g1193">
			<path
   fill="#004c98"
   d="m 264.3,25.1 c 0.3,0 0.6,0 0.9,0 0.3,0 0.6,0 0.9,0 4.1,0 6.9,0.1 10.9,0.4 l -9.3,-10.7 c -1,0 -1.4,-0.5 -2.4,-0.5 -6,0 -11.9,0.4 -17.8,1.1 l 8.4,10 c 2.7,-0.2 5.6,-0.3 8.4,-0.3 z"
   id="path1177" />
			<path
   fill="#004c98"
   d="m 220.7,32.4 -7.1,-9.2 c -5,1.8 -9.8,3.8 -14.5,6 l 6.8,9.1 c 4.8,-2.1 9.7,-4.1 14.8,-5.9 z"
   id="path1179" />
			<path
   fill="#004c98"
   d="m 179.7,54.6 -6.4,-9.4 c -1.5,1.1 -3,2.3 -4.4,3.5 -2.3,1.9 -4.5,3.8 -6.6,5.8 l 6.3,9.6 c 3.5,-3.3 7.3,-6.5 11.1,-9.5 z"
   id="path1181" />
			<path
   fill="#004c98"
   d="m 142.5,77 c -3.1,4.4 -6,9 -8.6,13.8 l 6.4,11.1 c 2.5,-5 5.4,-9.8 8.5,-14.5 z"
   id="path1183" />
			<path
   fill="#004c98"
   d="m 401.4,168.4 c -0.7,8.9 -2.2,17.5 -4.3,25.8 l 9.2,10.9 c 2.4,-8.2 4.1,-16.7 5,-25.4 z"
   id="path1185" />
			<path
   fill="#004c98"
   d="m 365.4,253.8 7.2,9.8 c 4.9,-5.3 9.4,-10.9 13.5,-16.8 l -7.8,-10.1 c -3.9,6.1 -8.2,11.8 -12.9,17.1 z"
   id="path1187" />
			<path
   fill="#004c98"
   d="m 316.4,289.5 6,9.2 c 6.1,-2.6 12,-5.7 17.7,-9.1 l -6.3,-9.3 c -5.6,3.5 -11.4,6.6 -17.4,9.2 z"
   id="path1189" />
			<path
   fill="#004c98"
   d="m 265.1,300.7 c -0.3,0 -0.6,0 -0.9,0 -0.3,0 -0.6,0 -0.9,0 -3.2,0 -6.3,-0.1 -9.4,-0.4 l 6.2,10.7 c 0.8,0 1.6,0 2.3,0 6.5,0 13,-0.5 19.3,-1.3 l -5.9,-9.7 c -3.5,0.4 -7.1,0.7 -10.7,0.7 z"
   id="path1191" />
		</g>
		<g
   id="g1211">
			<path
   fill="#bf0411"
   d="m 236.9,27.9 -7.5,-9.4 c -5.4,1.3 -10.6,2.9 -15.8,4.8 l 7.1,9.2 c 5.3,-1.9 10.7,-3.4 16.2,-4.6 z"
   id="path1195" />
			<path
   fill="#bf0411"
   d="m 192.3,45.8 -6.6,-9.2 c -4.3,2.7 -8.5,5.6 -12.5,8.7 l 6.4,9.4 c 4.1,-3.2 8.3,-6.2 12.7,-8.9 z"
   id="path1197" />
			<path
   fill="#bf0411"
   d="m 157.9,75.2 -6.2,-10 c -3.4,3.9 -6.6,8.1 -9.6,12.3 l 6.2,10.4 c 3,-4.3 6.2,-8.6 9.6,-12.7 z"
   id="path1199" />
			<path
   fill="#bf0411"
   d="m 127.6,141.3 c 1.1,-7.7 3,-15.1 5.4,-22.3 l -6.7,-12.2 c -2.6,6.5 -4.6,13.1 -6.2,19.9 z"
   id="path1201" />
			<path
   fill="#bf0411"
   d="m 389,217.1 c -3.1,6.9 -6.7,13.4 -10.7,19.5 l 7.8,10.1 c 4.2,-6 8,-12.4 11.3,-19.1 z"
   id="path1203" />
			<path
   fill="#bf0411"
   d="m 333.8,280.4 6.3,9.3 c 6,-3.6 11.7,-7.5 17.1,-11.8 l -6.7,-9.5 c -5.3,4.4 -10.9,8.4 -16.7,12 z"
   id="path1205" />
			<path
   fill="#bf0411"
   d="m 275.8,300.1 5.8,9.8 c 7.2,-0.9 14.2,-2.3 21.1,-4.2 l -5.9,-9.3 c -6.7,1.7 -13.8,3 -21,3.7 z"
   id="path1207" />
			<path
   fill="#bf0411"
   d="m 204.3,287 5,9.7 2.7,5.1 c 8.1,3.1 16.3,5.5 24.7,7 l -6.8,-12.5 C 221,294 212.4,290.8 204.3,287 Z"
   id="path1209" />
		</g>
		<path
   fill="#004c98"
   d="m 278.1,156.3 c 0,0 67.8,-25.6 76.1,-33.3 0,0 8.3,-5.5 11.7,6 0.8,2.7 1.8,8.6 -0.3,15.6 -1.6,5.4 -9.2,10.5 -16.3,2.7 0,0 -2.7,-6.3 -26.9,5.7 0,0 -9.3,1.8 -9.1,14.5 0.2,11.2 -0.4,10.1 1.5,12.8 1.1,1.7 6.3,-1.1 7,-1.5 4.2,-2.2 7.4,-3.3 7.8,-10.2 0.2,-3.6 2.6,-10.3 9,-11.4 7.5,-1.3 6.8,14.6 6.5,18.9 -0.7,9.9 -3.3,26.2 -13.2,26.2 -5.1,0 1.3,-10.1 -8.4,-9.6 0,0 -5.9,0.3 -8.9,5.4 -1.8,3.1 -1.8,22.5 0.9,23.4 5.2,1.7 23.2,-8.1 25,-9.2 4.4,-2.6 12.8,-9 16.9,-21.7 0,0 2.7,-6.4 9,-6.3 2.2,0 4.4,-0.3 5.1,5.3 0,0 0.6,5.2 -6,21.2 -2.3,5.6 -5.3,10.9 -9,12 -1.3,0.4 -3.7,0.7 -7.5,2 -4.2,1.4 -8.4,3.3 -8.4,3.3 l -58.8,23 c 0,0 -12.3,6.1 -14.4,3 -1.3,-1.9 -2.2,-4.9 3.8,-10.3 0,0 10.8,-7.9 9.7,-42 0,0 1.7,-33.2 -5.1,-31 0,0 -9.8,2.4 -6.8,-5.6 2.5,-6.3 4.6,-7.4 9.1,-8.9 z"
   id="path1213" />
		<path
   fill="#eec900"
   d="m 296.7,68.1 c 0,0 -1.4,-4.5 -13.2,-8 -7.7,-2.3 -18.1,-4.2 -21.7,-3.1 -3.2,0.9 -11.2,6.1 -18.2,8.9 -17.8,7.2 -51.8,20.2 -65.4,25.4 0,0 -5.3,2.4 -2.3,5.4 1.8,1.8 6.7,2.8 13.8,1.6 5.4,-0.9 8.5,0.9 13.9,3 9.3,3.6 24.6,10.3 42.2,21.7 3.1,2 11.3,8.1 13.7,9.7 2.1,1.3 3.4,3.3 1,5.9 0,0 -3.9,2.6 -0.1,5 5.8,3.7 12.8,0.4 14.3,-0.2 6.4,-2.4 25.1,-9.3 44,-16.4 12.2,-4.5 26.2,-11.3 33.7,-12.5 13.1,-2.1 12.2,-3.9 12.3,-4.4 0.9,-2.7 0.4,-8.8 -9.1,-16.6 -1.4,-1.2 -14.3,-8.1 -22.1,-3.1 -2.3,1.5 -0.8,4.7 1.7,10.8 0,0 3.6,7.2 -30.6,17 -0.9,0.3 -4.2,0.3 -6.4,-0.5 -8.6,-3.2 -28.8,-11.3 -18.9,-15.2 0,0 3.6,-2.8 10.3,-2.1 3.3,0.3 14.6,7 21,3.4 2.7,-1.5 2.6,-4.9 -7.5,-12.6 0,0 -8.1,-6.4 -17.4,-9.5 -12.9,-4.2 -28.1,-2.2 -15.7,6.3 0,0 5,3.3 -0.6,6 -0.8,0.4 -8.2,4.1 -14.8,1.5 -2,-0.8 -14.9,-8.2 -17.3,-11.6 -2,-2.8 21.4,-10.5 31.2,-11.5 3.4,-0.3 7.2,-0.5 11.2,-0.2 2.3,0.2 8.9,1.5 11.6,0.8 3,-0.7 6.2,-2.7 5.4,-4.9 z"
   id="path1215" />
		<path
   fill="#bf0411"
   d="m 172,99.7 c 0,0 4,-1.4 24.6,15.8 2.7,2.2 12.5,20.1 21,36.4 10.8,20.8 22.4,44.3 22.5,30.7 0,0 1.2,-10.2 -1.2,-16.3 -1.4,-3.4 -10.1,-12.8 -6.8,-18.1 2.4,-3.9 6,-2.1 18.7,8.2 0,0 7.8,5.2 12.1,11.6 3.1,4.5 3.9,10.8 1.5,11.8 -2.5,1.1 -6.5,-5.1 -8.1,7.6 -1.1,8.9 -1.3,26.9 -1.2,59.9 0,0 -0.6,21.8 -15.2,-5.2 l -34.5,-63.7 c 0,0 -9.7,-19.5 -9.1,0 0,0 -1.1,12.6 3.6,22.2 0.7,1.4 3.8,5.1 4.7,8.8 0.6,2.5 -0.2,5.3 -2.1,6 -2.3,0.9 -15.6,-4.8 -23.2,-13.5 -5.8,-6.6 -11.8,-17.8 -7.1,-19.4 1.9,-0.7 3.4,1.4 5.4,-0.9 1.5,-1.7 1.8,-6.1 2.3,-12.6 1.1,-13.2 1.9,-34.1 -2.8,-48.7 -1.5,-4.6 -8.3,-13.5 -8.5,-16 -0.1,-2.2 1.2,-5.2 3.4,-4.6 z"
   id="path1217" />
	</g>
	<g
   id="g1317">
		<path
   fill="#434441"
   d="m 122.3,357.7 c -1.5,0.5 -4.1,1.2 -6.8,1.2 -3.1,0 -5.6,-0.9 -7.4,-2.6 -1.8,-1.7 -2.6,-4.2 -2.6,-6.7 0,-4 1.6,-7.7 4.5,-10.2 2.5,-2.1 5.8,-3.3 9.6,-3.3 2.8,0 4.8,0.6 5.6,1 l -1.2,3.3 c -1.1,-0.5 -2.7,-0.9 -4.7,-0.9 -2.4,0 -4.6,0.8 -6.2,2.2 -2,1.7 -3.3,4.6 -3.3,7.7 0,4 2.2,6.3 6.4,6.3 1.2,0 2.2,-0.2 2.9,-0.5 l 1.1,-5.6 h -4 l 0.6,-3.1 h 7.7 z"
   id="path1221" />
		<path
   fill="#434441"
   d="m 126.2,358.7 1.9,-10 c 0.4,-2.3 0.6,-4.7 0.8,-6.2 h 3.4 c -0.1,1.1 -0.2,2.2 -0.4,3.4 h 0.1 c 1.1,-2.2 2.9,-3.8 5.1,-3.8 0.3,0 0.6,0 0.8,0.1 l -0.8,3.8 c -0.2,0 -0.5,-0.1 -0.7,-0.1 -2.8,0 -4.5,2.8 -5.1,6.2 l -1.2,6.5 h -3.9 z"
   id="path1223" />
		<path
   fill="#434441"
   d="m 154.5,342.5 -2.1,11.2 c -0.4,1.9 -0.6,3.6 -0.8,5 h -3.4 l 0.3,-2.8 h -0.1 c -1.6,2.1 -3.6,3.2 -5.6,3.2 -2.4,0 -4.2,-1.3 -4.2,-4.6 0,-0.9 0.1,-1.8 0.3,-2.9 l 1.7,-9.1 h 3.9 l -1.7,8.8 c -0.2,0.8 -0.3,1.6 -0.3,2.2 0,1.3 0.5,2.3 2.1,2.3 1.8,0 3.9,-2.1 4.5,-5.5 l 1.5,-7.9 h 3.9 z"
   id="path1225" />
		<path
   fill="#434441"
   d="m 154.5,365.3 3.2,-16.7 c 0.4,-1.9 0.7,-4.3 0.9,-6 h 3.5 l -0.4,2.7 h 0.1 c 1.4,-1.9 3.4,-3 5.5,-3 3.5,0 5.1,2.9 5.1,6 0,5.6 -3.9,10.9 -9.4,10.9 -1.5,0 -2.6,-0.3 -3.2,-0.7 h -0.1 l -1.3,6.9 h -3.9 z m 5.7,-10 c 0.6,0.5 1.5,0.8 2.6,0.8 3,0 5.4,-4 5.4,-7.6 0,-1.5 -0.7,-3.2 -2.6,-3.2 -2,0 -4.1,2.2 -4.8,6 z"
   id="path1227" />
		<path
   fill="#434441"
   d="m 190.4,348.9 c 0,5.5 -3.9,10.2 -9.4,10.2 -4.1,0 -6.6,-2.8 -6.6,-6.7 0,-5.5 3.8,-10.2 9.3,-10.2 4.4,-0.1 6.7,3.1 6.7,6.7 z m -12,3.4 c 0,2.2 1.2,3.8 3.2,3.8 2.9,0 4.8,-4 4.8,-7.2 0,-1.7 -0.7,-3.7 -3.1,-3.7 -3.1,-0.1 -4.9,4 -4.9,7.1 z"
   id="path1229" />
		<path
   fill="#434441"
   d="m 212.1,348.7 h -8 l -1.3,6.7 h 9 l -0.6,3.3 h -12.9 l 4.3,-22.4 H 215 l -0.6,3.3 h -8.5 l -1.1,5.9 h 8.1 z"
   id="path1231" />
		<path
   fill="#434441"
   d="m 214.6,358.7 2.1,-11.2 c 0.4,-1.9 0.6,-3.6 0.8,-5 h 3.4 l -0.3,2.8 v 0 c 1.5,-2.2 3.5,-3.2 5.6,-3.2 2.5,0 3.7,1.6 3.8,3.3 1.4,-2.2 3.5,-3.3 5.7,-3.3 2.2,0 4,1.4 4,4.3 0,0.7 -0.1,1.9 -0.3,2.8 l -1.8,9.5 h -3.8 l 1.7,-9 c 0.1,-0.7 0.2,-1.4 0.2,-2.1 0,-1.4 -0.6,-2.3 -2,-2.3 -1.8,0 -3.7,2.2 -4.3,5.6 l -1.5,7.7 h -3.7 l 1.7,-9.2 c 0.1,-0.7 0.2,-1.3 0.2,-1.9 0,-1.2 -0.4,-2.3 -1.9,-2.3 -1.8,0 -3.9,2.4 -4.4,5.7 l -1.4,7.7 h -3.8 z"
   id="path1233" />
		<path
   fill="#434441"
   d="m 240.5,365.3 3.2,-16.7 c 0.4,-1.9 0.7,-4.3 0.9,-6 h 3.5 l -0.4,2.7 h 0.1 c 1.4,-1.9 3.4,-3 5.5,-3 3.5,0 5.1,2.9 5.1,6 0,5.6 -3.9,10.9 -9.4,10.9 -1.5,0 -2.6,-0.3 -3.2,-0.7 h -0.1 l -1.3,6.9 h -3.9 z m 5.8,-10 c 0.6,0.5 1.5,0.8 2.6,0.8 3,0 5.4,-4 5.4,-7.6 0,-1.5 -0.7,-3.2 -2.6,-3.2 -2,0 -4.1,2.2 -4.8,6 z"
   id="path1235" />
		<path
   fill="#434441"
   d="m 260,358.7 1.9,-10 c 0.4,-2.3 0.6,-4.7 0.8,-6.2 h 3.4 c -0.1,1.1 -0.2,2.2 -0.4,3.4 h 0.1 c 1.1,-2.2 2.9,-3.8 5.1,-3.8 0.3,0 0.6,0 0.8,0.1 L 271,346 c -0.2,0 -0.5,-0.1 -0.7,-0.1 -2.8,0 -4.5,2.8 -5.1,6.2 l -1.2,6.5 h -4 z"
   id="path1237" />
		<path
   fill="#434441"
   d="m 284.1,357.7 c -1.6,0.8 -3.8,1.3 -5.7,1.3 -4.5,0 -6.6,-2.7 -6.6,-6.7 0,-4.9 3.6,-10.2 9.2,-10.2 3.2,0 5.2,1.9 5.2,4.5 0,4.2 -4.3,5.5 -10.6,5.3 -0.1,0.6 0.1,1.7 0.4,2.3 0.6,1.1 1.8,1.7 3.3,1.7 1.8,0 3.3,-0.5 4.4,-1.1 z M 280.4,345 c -2.4,0 -4,2.2 -4.5,4.1 4,0.1 6.5,-0.5 6.5,-2.4 0,-1 -0.8,-1.7 -2,-1.7 z"
   id="path1239" />
		<path
   fill="#434441"
   d="m 287.7,355.1 c 0.8,0.5 2.4,1.1 3.9,1.1 1.6,0 2.5,-0.9 2.5,-2 0,-1 -0.5,-1.7 -2.1,-2.5 -1.9,-1 -3.2,-2.4 -3.2,-4.2 0,-3.1 2.7,-5.3 6.5,-5.3 1.7,0 3.1,0.4 3.8,0.8 l -1,2.8 c -0.6,-0.3 -1.7,-0.7 -3,-0.7 -1.5,0 -2.5,0.8 -2.5,1.9 0,0.9 0.7,1.5 2.1,2.2 1.8,1 3.4,2.3 3.4,4.3 0,3.6 -3,5.5 -6.9,5.5 -1.9,0 -3.7,-0.5 -4.5,-1.2 z"
   id="path1241" />
		<path
   fill="#434441"
   d="m 311.1,358.7 c 0,-1 0.2,-2.3 0.3,-3.7 h -0.1 c -1.6,3 -3.7,4 -5.8,4 -2.9,0 -4.8,-2.3 -4.8,-5.5 0,-5.5 3.9,-11.4 11.4,-11.4 1.8,0 3.7,0.3 4.9,0.7 l -1.7,8.4 c -0.5,2.4 -0.7,5.4 -0.7,7.4 h -3.5 z m 1.6,-13.4 c -0.4,-0.1 -0.9,-0.2 -1.6,-0.2 -3.6,0 -6.3,4 -6.3,7.7 0,1.7 0.6,3.1 2.3,3.1 1.8,0 4,-2.3 4.7,-6.4 z"
   id="path1243" />
		<path
   fill="#434441"
   d="m 318.5,358.7 1.9,-10 c 0.4,-2.3 0.6,-4.7 0.8,-6.2 h 3.4 c -0.1,1.1 -0.2,2.2 -0.4,3.4 h 0.1 c 1.1,-2.2 2.9,-3.8 5.1,-3.8 0.3,0 0.6,0 0.8,0.1 l -0.8,3.8 c -0.2,0 -0.5,-0.1 -0.7,-0.1 -2.8,0 -4.5,2.8 -5.1,6.2 l -1.2,6.5 h -3.9 z"
   id="path1245" />
		<path
   fill="#434441"
   d="m 330,358.7 3.1,-16.2 h 3.9 l -3.1,16.2 z m 3.7,-20.6 c 0,-1.4 1.1,-2.4 2.3,-2.4 1.2,0 2.1,0.9 2.1,2.1 0,1.4 -1.1,2.3 -2.4,2.3 -1.2,0.1 -2,-0.8 -2,-2 z"
   id="path1247" />
		<path
   fill="#434441"
   d="m 348.9,358.7 c 0,-1 0.2,-2.3 0.3,-3.7 h -0.1 c -1.6,3 -3.7,4 -5.8,4 -2.9,0 -4.8,-2.3 -4.8,-5.5 0,-5.5 3.9,-11.4 11.4,-11.4 1.8,0 3.7,0.3 4.9,0.7 l -1.7,8.4 c -0.5,2.4 -0.7,5.4 -0.7,7.4 h -3.5 z m 1.6,-13.4 c -0.4,-0.1 -0.9,-0.2 -1.6,-0.2 -3.6,0 -6.3,4 -6.3,7.7 0,1.7 0.6,3.1 2.3,3.1 1.8,0 4,-2.3 4.7,-6.4 z"
   id="path1249" />
		<path
   fill="#434441"
   d="m 356.2,358.7 4.5,-23.6 h 3.9 l -4.5,23.6 z"
   id="path1251" />
		<path
   fill="#434441"
   d="m 384.5,348.7 h -8 l -1.3,6.7 h 9 l -0.6,3.3 h -12.9 l 4.3,-22.4 h 12.4 l -0.6,3.3 h -8.5 l -1.1,5.9 h 8.1 z"
   id="path1253" />
		<path
   fill="#434441"
   d="m 387.2,358.7 4.3,-22.4 h 4.4 l 3.9,10.4 c 1,2.7 1.5,4.8 2,7 h 0.1 c 0.1,-2.2 0.4,-4.3 1,-7.6 l 1.9,-9.8 h 3.7 l -4.3,22.4 h -4 l -4,-10.6 c -1,-2.9 -1.6,-4.7 -2.1,-7.2 H 394 c -0.2,2.1 -0.7,4.9 -1.3,8.2 l -1.8,9.6 z"
   id="path1255" />
		<path
   fill="#434441"
   d="m 422.6,348.7 h -8 l -1.3,6.7 h 9 l -0.6,3.3 h -12.9 l 4.3,-22.4 h 12.4 l -0.6,3.3 h -8.5 l -1.1,5.9 h 8.1 z"
   id="path1257" />
		<path
   fill="#434441"
   d="m 13.6,401.2 c 1.1,0.7 2.8,1.3 4.5,1.3 1.9,0 3.7,-1 3.7,-3 0,-1.3 -0.9,-2.2 -2.8,-3.3 -2.3,-1.3 -4.1,-2.9 -4.1,-5.3 0,-3.9 3.3,-6.3 7.4,-6.3 2.2,0 3.7,0.6 4.5,1 l -1.1,2.9 c -0.7,-0.4 -2,-0.9 -3.6,-0.9 -2.2,0 -3.5,1.3 -3.5,2.6 0,1.4 1.1,2.2 3,3.3 2.5,1.3 3.9,2.9 3.9,5.4 0,4 -3.3,6.5 -7.8,6.5 -2.5,0 -4.5,-0.7 -5.4,-1.4 z"
   id="path1259" />
		<path
   fill="#434441"
   d="m 47,393 c 0,3.6 -1.3,7.3 -3.6,9.6 -1.8,1.8 -4.3,2.8 -7.2,2.8 -5.2,0 -7.9,-3.8 -7.9,-8.3 0,-3.6 1.3,-7.4 3.8,-9.7 1.8,-1.8 4.4,-2.8 7.1,-2.8 5.2,0.1 7.8,3.8 7.8,8.4 z m -12.3,-3.6 c -1.8,1.8 -2.8,5.1 -2.8,7.7 0,3 1.4,5.6 4.8,5.6 1.5,0 2.9,-0.6 3.9,-1.7 1.7,-1.7 2.7,-5.2 2.7,-7.7 0,-2.7 -0.9,-5.5 -4.6,-5.5 -1.6,-0.2 -3,0.5 -4,1.6 z"
   id="path1261" />
		<path
   fill="#434441"
   d="m 64.9,405.2 1.3,-9.5 c 0.3,-2.1 0.7,-4.9 1.2,-7.4 h -0.1 c -1,2.4 -2.2,5 -3.3,7.1 l -5,9.5 h -2.7 l -1,-9.4 c -0.2,-2.2 -0.4,-4.8 -0.5,-7.2 h -0.1 c -0.5,2.3 -1.1,5.4 -1.6,7.4 l -2.3,9.5 h -3.2 l 5.1,-20.1 h 4.6 l 1.1,9.4 c 0.1,1.8 0.4,3.9 0.4,5.8 h 0.1 c 0.7,-1.9 1.7,-4 2.5,-5.8 l 4.9,-9.4 H 71 l -2.7,20.1 z"
   id="path1263" />
		<path
   fill="#434441"
   d="m 91.3,393 c 0,3.6 -1.3,7.3 -3.6,9.6 -1.8,1.8 -4.3,2.8 -7.2,2.8 -5.2,0 -7.9,-3.8 -7.9,-8.3 0,-3.6 1.3,-7.4 3.8,-9.7 1.8,-1.8 4.4,-2.8 7.1,-2.8 5.3,0.1 7.8,3.8 7.8,8.4 z M 79,389.4 c -1.8,1.8 -2.8,5.1 -2.8,7.7 0,3 1.4,5.6 4.8,5.6 1.5,0 2.9,-0.6 3.9,-1.7 1.7,-1.7 2.7,-5.2 2.7,-7.7 0,-2.7 -0.9,-5.5 -4.6,-5.5 -1.5,-0.2 -2.9,0.5 -4,1.6 z"
   id="path1265" />
		<path
   fill="#434441"
   d="m 93,401.2 c 1.1,0.7 2.8,1.3 4.5,1.3 1.9,0 3.7,-1 3.7,-3 0,-1.3 -0.9,-2.2 -2.8,-3.3 -2.3,-1.3 -4.1,-2.9 -4.1,-5.3 0,-3.9 3.3,-6.3 7.4,-6.3 2.2,0 3.7,0.6 4.5,1 l -1.1,2.9 c -0.7,-0.4 -2,-0.9 -3.6,-0.9 -2.2,0 -3.5,1.3 -3.5,2.6 0,1.4 1.1,2.2 3,3.3 2.5,1.3 3.9,2.9 3.9,5.4 0,4 -3.3,6.5 -7.8,6.5 -2.5,0 -4.5,-0.7 -5.4,-1.4 z"
   id="path1267" />
		<path
   fill="#434441"
   d="m 119.8,385 -3.8,20.1 h -3.5 l 3.8,-20.1 z"
   id="path1269" />
		<path
   fill="#434441"
   d="M 120.2,405.2 124,385 h 4 l 3.5,9.4 c 0.9,2.5 1.4,4.3 1.8,6.3 h 0.1 c 0.1,-2 0.4,-3.9 0.9,-6.8 l 1.7,-8.8 h 3.3 l -3.8,20.1 h -3.6 l -3.6,-9.5 c -0.9,-2.6 -1.4,-4.3 -1.9,-6.5 h -0.1 c -0.2,1.9 -0.6,4.4 -1.2,7.4 l -1.6,8.6 z"
   id="path1271" />
		<path
   fill="#434441"
   d="m 146.5,388.1 h -5.6 l 0.6,-3 h 14.7 l -0.6,3 H 150 l -3.2,17.1 h -3.5 z"
   id="path1273" />
		<path
   fill="#434441"
   d="m 167.1,396.2 h -7.2 l -1.1,6 h 8.1 l -0.6,3 h -11.6 l 3.8,-20.1 h 11.2 l -0.6,3 h -7.7 l -1,5.3 h 7.3 z"
   id="path1275" />
		<path
   fill="#434441"
   d="m 185.3,404.3 c -1.4,0.5 -3.7,1.1 -6.2,1.1 -2.8,0 -5.1,-0.8 -6.6,-2.4 -1.6,-1.5 -2.3,-3.7 -2.3,-6 0,-3.6 1.4,-7 4,-9.2 2.2,-1.9 5.2,-3 8.6,-3 2.5,0 4.4,0.5 5.1,0.9 l -1.1,2.9 c -1,-0.5 -2.5,-0.8 -4.3,-0.8 -2.2,0 -4.1,0.7 -5.6,2 -1.8,1.6 -3,4.2 -3,6.9 0,3.6 2,5.7 5.7,5.7 1.1,0 2,-0.2 2.6,-0.4 l 1,-5.1 h -3.6 l 0.6,-2.8 h 6.9 z"
   id="path1277" />
		<path
   fill="#434441"
   d="m 192.7,385.3 c 1.3,-0.3 3.2,-0.5 5,-0.5 1.9,0 3.8,0.4 5.1,1.3 1.1,0.8 1.9,2 1.9,3.6 0,3 -2.1,5 -4.7,5.8 v 0.1 c 1.3,0.5 1.9,1.9 2.1,3.8 0.2,2.5 0.4,4.8 0.7,5.6 h -3.6 c -0.1,-0.5 -0.4,-2.4 -0.5,-4.8 -0.1,-2.6 -1.1,-3.5 -2.9,-3.5 H 194 l -1.6,8.3 H 189 Z m 1.8,8.9 h 2 c 2.7,0 4.5,-1.7 4.5,-3.9 0,-1.9 -1.5,-2.7 -3.4,-2.7 -0.9,0 -1.4,0.1 -1.9,0.2 z"
   id="path1279" />
		<path
   fill="#434441"
   d="m 210.7,399.4 -2.8,5.7 h -3.7 L 214.3,385 h 4.4 l 2.5,20.1 h -3.6 l -0.6,-5.7 z m 6.1,-2.7 -0.6,-5 c -0.1,-1.1 -0.2,-2.6 -0.3,-3.8 h -0.1 c -0.5,1.2 -1.1,2.6 -1.6,3.8 l -2.5,5 z"
   id="path1281" />
		<path
   fill="#434441"
   d="m 227.4,385.3 c 1.6,-0.3 3.4,-0.4 5.3,-0.4 3.2,0 5.8,0.8 7.4,2.4 1.4,1.3 2.3,3.1 2.3,5.9 0,3.8 -1.6,7.3 -4.1,9.4 -2.3,1.9 -5.3,2.7 -9.4,2.7 -2.1,0 -4.1,-0.1 -5.2,-0.3 z m 0.3,17 c 0.7,0.1 1.4,0.1 2.2,0.1 2.7,0 4.9,-0.9 6.4,-2.5 1.6,-1.7 2.4,-4.1 2.4,-6.7 0,-3.3 -1.8,-5.6 -6,-5.6 -0.8,0 -1.7,0.1 -2.2,0.2 z"
   id="path1283" />
		<path
   fill="#434441"
   d="m 263,393 c 0,3.6 -1.3,7.3 -3.6,9.6 -1.8,1.8 -4.3,2.8 -7.2,2.8 -5.2,0 -7.9,-3.8 -7.9,-8.3 0,-3.6 1.3,-7.4 3.8,-9.7 1.8,-1.8 4.4,-2.8 7.1,-2.8 5.3,0.1 7.8,3.8 7.8,8.4 z m -12.3,-3.6 c -1.8,1.8 -2.8,5.1 -2.8,7.7 0,3 1.4,5.6 4.8,5.6 1.5,0 2.9,-0.6 3.9,-1.7 1.7,-1.7 2.7,-5.2 2.7,-7.7 0,-2.7 -0.9,-5.5 -4.6,-5.5 -1.6,-0.2 -2.9,0.5 -4,1.6 z"
   id="path1285" />
		<path
   fill="#434441"
   d="m 267.9,385.3 c 1.3,-0.3 3.2,-0.5 5,-0.5 1.9,0 3.8,0.4 5.1,1.3 1.1,0.8 1.9,2 1.9,3.6 0,3 -2.1,5 -4.7,5.8 v 0.1 c 1.3,0.5 1.9,1.9 2.1,3.8 0.2,2.5 0.4,4.8 0.7,5.6 h -3.6 c -0.1,-0.5 -0.4,-2.4 -0.5,-4.8 -0.1,-2.6 -1.1,-3.5 -2.9,-3.5 h -1.7 l -1.6,8.3 h -3.4 z m 1.7,8.9 h 2 c 2.7,0 4.5,-1.7 4.5,-3.9 0,-1.9 -1.5,-2.7 -3.4,-2.7 -0.9,0 -1.4,0.1 -1.9,0.2 z"
   id="path1287" />
		<path
   fill="#434441"
   d="m 293.1,396.2 h -7.2 l -1.1,6 h 8.1 l -0.6,3 h -11.6 l 3.8,-20.1 h 11.2 l -0.6,3 h -7.7 l -1,5.3 h 7.3 z"
   id="path1289" />
		<path
   fill="#434441"
   d="m 296.1,401.2 c 1.1,0.7 2.8,1.3 4.5,1.3 1.9,0 3.7,-1 3.7,-3 0,-1.3 -0.9,-2.2 -2.8,-3.3 -2.3,-1.3 -4.1,-2.9 -4.1,-5.3 0,-3.9 3.3,-6.3 7.4,-6.3 2.2,0 3.7,0.6 4.5,1 l -1.1,2.9 c -0.7,-0.4 -2,-0.9 -3.6,-0.9 -2.2,0 -3.5,1.3 -3.5,2.6 0,1.4 1.1,2.2 3,3.3 2.5,1.3 3.9,2.9 3.9,5.4 0,4 -3.3,6.5 -7.8,6.5 -2.5,0 -4.5,-0.7 -5.4,-1.4 z"
   id="path1291" />
		<path
   fill="#434441"
   d="m 319.4,385.3 c 1.6,-0.3 3.4,-0.4 5.3,-0.4 3.2,0 5.8,0.8 7.4,2.4 1.4,1.3 2.3,3.1 2.3,5.9 0,3.8 -1.6,7.3 -4.1,9.4 -2.3,1.9 -5.3,2.7 -9.4,2.7 -2.1,0 -4.1,-0.1 -5.2,-0.3 z m 0.3,17 c 0.7,0.1 1.4,0.1 2.2,0.1 2.7,0 4.9,-0.9 6.4,-2.5 1.6,-1.7 2.4,-4.1 2.4,-6.7 0,-3.3 -1.8,-5.6 -6,-5.6 -0.8,0 -1.7,0.1 -2.2,0.2 z"
   id="path1293" />
		<path
   fill="#434441"
   d="m 348,396.2 h -7.2 l -1.1,6 h 8.1 l -0.6,3 h -11.6 l 3.8,-20.1 h 11.2 l -0.6,3 h -7.7 l -1,5.3 h 7.3 z"
   id="path1295" />
		<path
   fill="#434441"
   d="m 356.5,401.2 c 1.1,0.7 2.8,1.3 4.5,1.3 1.9,0 3.7,-1 3.7,-3 0,-1.3 -0.9,-2.2 -2.8,-3.3 -2.3,-1.3 -4.1,-2.9 -4.1,-5.3 0,-3.9 3.3,-6.3 7.4,-6.3 2.2,0 3.7,0.6 4.5,1 l -1.1,2.9 c -0.7,-0.4 -2,-0.9 -3.6,-0.9 -2.2,0 -3.5,1.3 -3.5,2.6 0,1.4 1.1,2.2 3,3.3 2.5,1.3 3.9,2.9 3.9,5.4 0,4 -3.3,6.5 -7.8,6.5 -2.5,0 -4.5,-0.7 -5.4,-1.4 z"
   id="path1297" />
		<path
   fill="#434441"
   d="m 389.8,393 c 0,3.6 -1.3,7.3 -3.6,9.6 -1.8,1.8 -4.3,2.8 -7.2,2.8 -5.2,0 -7.9,-3.8 -7.9,-8.3 0,-3.6 1.3,-7.4 3.8,-9.7 1.8,-1.8 4.4,-2.8 7.1,-2.8 5.3,0.1 7.8,3.8 7.8,8.4 z m -12.3,-3.6 c -1.8,1.8 -2.8,5.1 -2.8,7.7 0,3 1.4,5.6 4.8,5.6 1.5,0 2.9,-0.6 3.9,-1.7 1.7,-1.7 2.7,-5.2 2.7,-7.7 0,-2.7 -0.9,-5.5 -4.6,-5.5 -1.6,-0.2 -2.9,0.5 -4,1.6 z"
   id="path1299" />
		<path
   fill="#434441"
   d="m 394.7,385 h 3.5 l -3.3,17.1 h 7.9 l -0.6,3 h -11.4 z"
   id="path1301" />
		<path
   fill="#434441"
   d="m 410.8,385 -2.2,11.7 c -0.1,0.7 -0.2,1.6 -0.2,2.5 0,2.1 1.3,3.3 3.3,3.3 2.5,0 4.2,-1.7 5,-5.8 l 2.2,-11.8 h 3.5 l -2.2,11.7 c -1.2,6.1 -4,8.8 -8.9,8.8 -3.8,0 -6.3,-2 -6.3,-6.2 0,-0.9 0.1,-1.9 0.3,-2.8 l 2.2,-11.5 h 3.3 z"
   id="path1303" />
		<path
   fill="#434441"
   d="m 437.2,404.6 c -1.1,0.5 -2.9,0.9 -5.3,0.9 -5.2,0 -8.6,-3.2 -8.6,-8.5 0,-4.2 1.8,-7.7 4.7,-9.9 2.1,-1.6 4.6,-2.4 7.5,-2.4 2.2,0 3.8,0.5 4.4,0.9 l -1,2.8 c -0.7,-0.4 -2,-0.7 -3.8,-0.7 -1.9,0 -3.8,0.7 -5.1,1.9 -1.8,1.6 -2.9,4.1 -2.9,7 0,3.4 1.7,5.9 5.7,5.9 1.5,0 3,-0.3 4,-0.8 z"
   id="path1305" />
		<path
   fill="#434441"
   d="m 447,385 -3.8,20.1 h -3.5 l 3.8,-20.1 z"
   id="path1307" />
		<path
   fill="#434441"
   d="m 466.9,393 c 0,3.6 -1.3,7.3 -3.6,9.6 -1.8,1.8 -4.3,2.8 -7.2,2.8 -5.2,0 -7.9,-3.8 -7.9,-8.3 0,-3.6 1.3,-7.4 3.8,-9.7 1.8,-1.8 4.4,-2.8 7.1,-2.8 5.2,0.1 7.8,3.8 7.8,8.4 z m -12.4,-3.6 c -1.8,1.8 -2.8,5.1 -2.8,7.7 0,3 1.4,5.6 4.8,5.6 1.5,0 2.9,-0.6 3.9,-1.7 1.7,-1.7 2.7,-5.2 2.7,-7.7 0,-2.7 -0.9,-5.5 -4.6,-5.5 -1.5,-0.2 -2.9,0.5 -4,1.6 z"
   id="path1309" />
		<path
   fill="#434441"
   d="m 467.9,405.2 3.8,-20.1 h 4 l 3.5,9.4 c 0.9,2.5 1.4,4.3 1.8,6.3 h 0.1 c 0.1,-2 0.4,-3.9 0.9,-6.8 l 1.7,-8.8 h 3.3 l -3.8,20.1 h -3.6 l -3.6,-9.5 c -0.9,-2.6 -1.4,-4.3 -1.9,-6.5 H 474 c -0.2,1.9 -0.6,4.4 -1.2,7.4 l -1.6,8.6 h -3.3 z"
   id="path1311" />
		<path
   fill="#434441"
   d="m 499.8,396.2 h -7.2 l -1.1,6 h 8.1 l -0.6,3 h -11.6 l 3.8,-20.1 h 11.2 l -0.6,3 h -7.7 l -1,5.3 h 7.3 z"
   id="path1313" />
		<path
   fill="#434441"
   d="m 502.8,401.2 c 1.1,0.7 2.8,1.3 4.5,1.3 1.9,0 3.7,-1 3.7,-3 0,-1.3 -0.9,-2.2 -2.8,-3.3 -2.3,-1.3 -4.1,-2.9 -4.1,-5.3 0,-3.9 3.3,-6.3 7.4,-6.3 2.2,0 3.7,0.6 4.5,1 l -1.1,2.9 c -0.7,-0.4 -2,-0.9 -3.6,-0.9 -2.2,0 -3.5,1.3 -3.5,2.6 0,1.4 1.1,2.2 3,3.3 2.5,1.3 3.9,2.9 3.9,5.4 0,4 -3.3,6.5 -7.8,6.5 -2.5,0 -4.5,-0.7 -5.4,-1.4 z"
   id="path1315" />
	</g>
</g>
</svg>
